<svg xmlns="http://www.w3.org/2000/svg" xmlns:xlink="http://www.w3.org/1999/xlink" version="1.1" class="marks" width="625" height="591" viewBox="0 0 625 591"><rect width="625" height="591" fill="white"/><g fill="none" stroke-miterlimit="10" transform="translate(101,34)"><g class="mark-group role-frame root" role="graphics-object" aria-roledescription="group mark container"><g transform="translate(0,0)"><path class="background" aria-hidden="true" d="M0,0h0v0h0Z"/><g><g class="mark-group role-scope concat_0_group" role="graphics-object" aria-roledescription="group mark container"><g transform="translate(0,0)"><path class="background" aria-hidden="true" d="M0,0h0v0h0Z"/><g><g class="mark-group role-row-header concat_0_row_header" role="graphics-object" aria-roledescription="group mark container"><g transform="translate(-1,0)"><path class="background" aria-hidden="true" d="M0,0h0v200h0Z"/><g><g class="mark-group role-axis" role="graphics-symbol" aria-roledescription="axis" aria-label="Y-axis titled 'neutralization titer' for a log scale with values from 30 to 16,000"><g transform="translate(0.5,0.5)"><path class="background" aria-hidden="true" d="M0,0h0v0h0Z" pointer-events="none"/><g><g class="mark-rule role-axis-tick" pointer-events="none"><line transform="translate(0,200)" x2="-5" y2="0" stroke="#888" stroke-width="1" opacity="1"/><line transform="translate(0,191)" x2="-5" y2="0" stroke="#888" stroke-width="1" opacity="1"/><line transform="translate(0,184)" x2="-5" y2="0" stroke="#888" stroke-width="1" opacity="1"/><line transform="translate(0,178)" x2="-5" y2="0" stroke="#888" stroke-width="1" opacity="1"/><line transform="translate(0,173)" x2="-5" y2="0" stroke="#888" stroke-width="1" opacity="1"/><line transform="translate(0,169)" x2="-5" y2="0" stroke="#888" stroke-width="1" opacity="1"/><line transform="translate(0,165)" x2="-5" y2="0" stroke="#888" stroke-width="1" opacity="1"/><line transform="translate(0,162)" x2="-5" y2="0" stroke="#888" stroke-width="1" opacity="1"/><line transform="translate(0,140)" x2="-5" y2="0" stroke="#888" stroke-width="1" opacity="1"/><line transform="translate(0,127)" x2="-5" y2="0" stroke="#888" stroke-width="1" opacity="1"/><line transform="translate(0,117)" x2="-5" y2="0" stroke="#888" stroke-width="1" opacity="1"/><line transform="translate(0,110)" x2="-5" y2="0" stroke="#888" stroke-width="1" opacity="1"/><line transform="translate(0,105)" x2="-5" y2="0" stroke="#888" stroke-width="1" opacity="1"/><line transform="translate(0,100)" x2="-5" y2="0" stroke="#888" stroke-width="1" opacity="1"/><line transform="translate(0,95)" x2="-5" y2="0" stroke="#888" stroke-width="1" opacity="1"/><line transform="translate(0,92)" x2="-5" y2="0" stroke="#888" stroke-width="1" opacity="1"/><line transform="translate(0,88)" x2="-5" y2="0" stroke="#888" stroke-width="1" opacity="1"/><line transform="translate(0,66)" x2="-5" y2="0" stroke="#888" stroke-width="1" opacity="1"/><line transform="translate(0,53)" x2="-5" y2="0" stroke="#888" stroke-width="1" opacity="1"/><line transform="translate(0,44)" x2="-5" y2="0" stroke="#888" stroke-width="1" opacity="1"/><line transform="translate(0,37)" x2="-5" y2="0" stroke="#888" stroke-width="1" opacity="1"/><line transform="translate(0,31)" x2="-5" y2="0" stroke="#888" stroke-width="1" opacity="1"/><line transform="translate(0,26)" x2="-5" y2="0" stroke="#888" stroke-width="1" opacity="1"/><line transform="translate(0,22)" x2="-5" y2="0" stroke="#888" stroke-width="1" opacity="1"/><line transform="translate(0,18)" x2="-5" y2="0" stroke="#888" stroke-width="1" opacity="1"/><line transform="translate(0,15)" x2="-5" y2="0" stroke="#888" stroke-width="1" opacity="1"/></g><g class="mark-text role-axis-label" pointer-events="none"><text text-anchor="end" transform="translate(-7,205)" font-family="sans-serif" font-size="18px" fill="#000" opacity="1">30</text><text text-anchor="end" transform="translate(-7,195.8369053987164)" font-family="sans-serif" font-size="18px" fill="#000" opacity="1"/><text text-anchor="end" transform="translate(-7,188.72945705154422)" font-family="sans-serif" font-size="18px" fill="#000" opacity="1"/><text text-anchor="end" transform="translate(-7,182.92224891195352)" font-family="sans-serif" font-size="18px" fill="#000" opacity="1"/><text text-anchor="end" transform="translate(-7,178.01232438981944)" font-family="sans-serif" font-size="18px" fill="#000" opacity="1"/><text text-anchor="end" transform="translate(-7,173.7591543106699)" font-family="sans-serif" font-size="18px" fill="#000" opacity="1"/><text text-anchor="end" transform="translate(-7,170.00759242519058)" font-family="sans-serif" font-size="18px" fill="#000" opacity="1"/><text text-anchor="end" transform="translate(-7,166.6517059634977)" font-family="sans-serif" font-size="18px" fill="#000" opacity="1">100</text><text text-anchor="end" transform="translate(-7,144.57395487545122)" font-family="sans-serif" font-size="18px" fill="#000" opacity="1">200</text><text text-anchor="end" transform="translate(-7,131.65929838868828)" font-family="sans-serif" font-size="18px" fill="#000" opacity="0">300</text><text text-anchor="end" transform="translate(-7,122.49620378740471)" font-family="sans-serif" font-size="18px" fill="#000" opacity="1"/><text text-anchor="end" transform="translate(-7,115.38875544023253)" font-family="sans-serif" font-size="18px" fill="#000" opacity="1"/><text text-anchor="end" transform="translate(-7,109.5815473006418)" font-family="sans-serif" font-size="18px" fill="#000" opacity="1"/><text text-anchor="end" transform="translate(-7,104.67162277850774)" font-family="sans-serif" font-size="18px" fill="#000" opacity="1"/><text text-anchor="end" transform="translate(-7,100.4184526993582)" font-family="sans-serif" font-size="18px" fill="#000" opacity="1"/><text text-anchor="end" transform="translate(-7,96.6668908138789)" font-family="sans-serif" font-size="18px" fill="#000" opacity="1"/><text text-anchor="end" transform="translate(-7,93.31100435218599)" font-family="sans-serif" font-size="18px" fill="#000" opacity="1">1,000</text><text text-anchor="end" transform="translate(-7,71.2332532641395)" font-family="sans-serif" font-size="18px" fill="#000" opacity="1">2,000</text><text text-anchor="end" transform="translate(-7,58.31859677737663)" font-family="sans-serif" font-size="18px" fill="#000" opacity="0">3,000</text><text text-anchor="end" transform="translate(-7,49.15550217609301)" font-family="sans-serif" font-size="18px" fill="#000" opacity="1"/><text text-anchor="end" transform="translate(-7,42.04805382892078)" font-family="sans-serif" font-size="18px" fill="#000" opacity="1"/><text text-anchor="end" transform="translate(-7,36.24084568933012)" font-family="sans-serif" font-size="18px" fill="#000" opacity="1"/><text text-anchor="end" transform="translate(-7,31.330921167196042)" font-family="sans-serif" font-size="18px" fill="#000" opacity="1"/><text text-anchor="end" transform="translate(-7,27.077751088046504)" font-family="sans-serif" font-size="18px" fill="#000" opacity="1"/><text text-anchor="end" transform="translate(-7,23.32618920256719)" font-family="sans-serif" font-size="18px" fill="#000" opacity="1"/><text text-anchor="end" transform="translate(-7,19.970302740874274)" font-family="sans-serif" font-size="18px" fill="#000" opacity="1">10,000</text></g><g class="mark-rule role-axis-domain" pointer-events="none"><line transform="translate(0,200)" x2="0" y2="-200" stroke="#888" stroke-width="1" opacity="1"/></g><g class="mark-text role-axis-title" pointer-events="none"><text text-anchor="middle" transform="translate(-66.0546875,100) rotate(-90) translate(0,-4)" font-family="sans-serif" font-size="18px" font-weight="bold" fill="#000" opacity="1">neutralization titer</text></g></g><path class="foreground" aria-hidden="true" d="" pointer-events="none" display="none"/></g></g><g class="mark-group role-title"><g transform="translate(-94.0546875,100)"><path class="background" aria-hidden="true" d="M0,0h0v0h0Z" pointer-events="none"/><g><g class="mark-text role-title-text" role="graphics-symbol" aria-roledescription="title" aria-label="Title text 'AusVaccineCohort'" pointer-events="none"><text text-anchor="middle" transform="translate(0,0) rotate(-90)" font-family="sans-serif" font-size="0px" font-weight="bold" fill="#000" opacity="1">AusVaccineCohort</text></g></g><path class="foreground" aria-hidden="true" d="" pointer-events="none" display="none"/></g></g></g><path class="foreground" aria-hidden="true" d="" display="none"/></g></g><g class="mark-group role-column-header concat_0_column_header" role="graphics-object" aria-roledescription="group mark container"><g transform="translate(0,-1)"><path class="background" aria-hidden="true" d="M0,0h180v0h-180Z"/><g><g class="mark-group role-title"><g transform="translate(90,-28)"><path class="background" aria-hidden="true" d="M0,0h0v0h0Z" pointer-events="none"/><g><g class="mark-text role-title-text" role="graphics-symbol" aria-roledescription="title" aria-label="Title text 'cell-passaged'" pointer-events="none"><text text-anchor="middle" transform="translate(0,14)" font-family="sans-serif" font-size="18px" font-weight="bold" fill="#000" opacity="1">cell-passaged</text></g></g><path class="foreground" aria-hidden="true" d="" pointer-events="none" display="none"/></g></g></g><path class="foreground" aria-hidden="true" d="" display="none"/></g></g><g class="mark-group role-column-footer concat_0_column_footer" role="graphics-object" aria-roledescription="group mark container"><g transform="translate(0,201)"><path class="background" aria-hidden="true" d="M0,0h180v0h-180Z"/><g><g class="mark-group role-axis" role="graphics-symbol" aria-roledescription="axis" aria-label="X-axis for a discrete scale with 9 values: A/Texas/50/2012, A/Switzerland/9715293/2013, A/HongKong/4801/2014, A/Singapore/INFIMH-16-0019/2016, A/Kansas/14/2017, ending with A/Massachusetts/18/2022"><g transform="translate(0.5,0.5)"><path class="background" aria-hidden="true" d="M0,0h0v0h0Z" pointer-events="none"/><g><g class="mark-rule role-axis-tick" pointer-events="none"><line transform="translate(10,0)" x2="0" y2="5" stroke="#888" stroke-width="1" opacity="1"/><line transform="translate(30,0)" x2="0" y2="5" stroke="#888" stroke-width="1" opacity="1"/><line transform="translate(50,0)" x2="0" y2="5" stroke="#888" stroke-width="1" opacity="1"/><line transform="translate(70,0)" x2="0" y2="5" stroke="#888" stroke-width="1" opacity="1"/><line transform="translate(90,0)" x2="0" y2="5" stroke="#888" stroke-width="1" opacity="1"/><line transform="translate(110,0)" x2="0" y2="5" stroke="#888" stroke-width="1" opacity="1"/><line transform="translate(130,0)" x2="0" y2="5" stroke="#888" stroke-width="1" opacity="1"/><line transform="translate(150,0)" x2="0" y2="5" stroke="#888" stroke-width="1" opacity="1"/><line transform="translate(170,0)" x2="0" y2="5" stroke="#888" stroke-width="1" opacity="1"/></g><g class="mark-text role-axis-label" pointer-events="none"><text text-anchor="end" transform="translate(10,7) rotate(270) translate(0,5)" font-family="sans-serif" font-size="18px" font-weight="normal" fill="#000" opacity="1">A/Texas/50/2012</text><text text-anchor="end" transform="translate(30,7) rotate(270) translate(0,5)" font-family="sans-serif" font-size="18px" font-weight="normal" fill="#000" opacity="1">A/Switzerland/9715293/2013</text><text text-anchor="end" transform="translate(50,7) rotate(270) translate(0,5)" font-family="sans-serif" font-size="18px" font-weight="normal" fill="#000" opacity="1">A/HongKong/4801/2014</text><text text-anchor="end" transform="translate(70,7) rotate(270) translate(0,5)" font-family="sans-serif" font-size="18px" font-weight="normal" fill="#000" opacity="1">A/Singapore/INFIMH-16-0019/2016</text><text text-anchor="end" transform="translate(90,7) rotate(270) translate(0,5)" font-family="sans-serif" font-size="18px" font-weight="normal" fill="#000" opacity="1">A/Kansas/14/2017</text><text text-anchor="end" transform="translate(110,7) rotate(270) translate(0,5)" font-family="sans-serif" font-size="18px" font-weight="normal" fill="#000" opacity="1">A/HongKong/45/2019</text><text text-anchor="end" transform="translate(130,7) rotate(270) translate(0,5)" font-family="sans-serif" font-size="18px" font-weight="normal" fill="#000" opacity="1">A/Cambodia/e0826360/2020</text><text text-anchor="end" transform="translate(150,7) rotate(270) translate(0,5)" font-family="sans-serif" font-size="18px" font-weight="normal" fill="#000" opacity="1">A/Darwin/6/2021</text><text text-anchor="end" transform="translate(170,7) rotate(270) translate(0,5)" font-family="sans-serif" font-size="18px" font-weight="bold" fill="#000" opacity="1">A/Massachusetts/18/2022</text></g><g class="mark-rule role-axis-domain" pointer-events="none"><line transform="translate(0,0)" x2="180" y2="0" stroke="#888" stroke-width="1" opacity="1"/></g></g><path class="foreground" aria-hidden="true" d="" pointer-events="none" display="none"/></g></g></g><path class="foreground" aria-hidden="true" d="" display="none"/></g></g><g class="mark-group role-scope concat_0_cell" role="graphics-object" aria-roledescription="group mark container"><g transform="translate(0,0)"><path class="background" aria-hidden="true" d="M0.5,0.5h180v200h-180Z" stroke="#ddd"/><g><g class="mark-group role-scope concat_0_child_layer_0_layer_0_pathgroup" role="graphics-object" aria-roledescription="group mark container"><g transform="translate(0,0)"><path class="background" aria-hidden="true" d="M0,0h180v200h-180Z"/><g><g class="mark-area role-mark concat_0_child_layer_0_layer_0_marks" role="graphics-object" aria-roledescription="area mark container"><path aria-label="virus: A/Texas/50/2012; titer: 1504; upper_titer: 14982.5; timepoint: postvax; Q3 of titer: 14982.5; Q1 of titer: 1504; Median of titer: 5975" role="graphics-symbol" aria-roledescription="errorband" d="M10,75.312L30,134.768L50,124.916L70,131.001L90,119.078L110,139.356L130,144.299L150,127.182L170,93.213L170,64.866L150,72.409L130,112.31L110,97.116L90,86.208L70,95.58L50,80.256L30,99.667L10,2.093Z" fill="#515A47" opacity="0.4"/></g></g><path class="foreground" aria-hidden="true" d="" display="none"/></g><g transform="translate(0,0)"><path class="background" aria-hidden="true" d="M0,0h180v200h-180Z"/><g><g class="mark-area role-mark concat_0_child_layer_0_layer_0_marks" role="graphics-object" aria-roledescription="area mark container"><path aria-label="virus: A/Texas/50/2012; titer: 1123.65; upper_titer: 6214.25; timepoint: prevax; Q3 of titer: 6214.25; Q1 of titer: 1123.65; Median of titer: 2670.5" role="graphics-symbol" aria-roledescription="errorband" d="M10,84.598L30,166.952L50,131.733L70,136.132L90,186.301L110,179.403L130,190.837L150,190.427L170,160.256L170,144.68L150,146.876L130,160.518L110,126.453L90,129.974L70,120.419L50,112.981L30,143.483L10,30.123Z" fill="#A499B3" opacity="0.4"/></g></g><path class="foreground" aria-hidden="true" d="" display="none"/></g></g><g class="mark-symbol role-mark concat_0_child_layer_1_marks" role="graphics-object" aria-roledescription="symbol mark container"><path aria-label="virus: A/Cambodia/e0826360/2020; Median of titer: 412.3; timepoint: postvax" role="graphics-symbol" aria-roledescription="point" transform="translate(130,116.53152834853127)" d="M6.325,0A6.325,6.325,0,1,1,-6.325,0A6.325,6.325,0,1,1,6.325,0" fill="#515A47" stroke="black" stroke-width="2.2" opacity="0.9"/><path aria-label="virus: A/Darwin/6/2021; Median of titer: 569.4; timepoint: postvax" role="graphics-symbol" aria-roledescription="point" transform="translate(150,106.24885923150664)" d="M6.325,0A6.325,6.325,0,1,1,-6.325,0A6.325,6.325,0,1,1,6.325,0" fill="#515A47" stroke="black" stroke-width="2.2" opacity="0.9"/><path aria-label="virus: A/HongKong/45/2019; Median of titer: 328.35; timepoint: postvax" role="graphics-symbol" aria-roledescription="point" transform="translate(110,123.78318660306759)" d="M6.325,0A6.325,6.325,0,1,1,-6.325,0A6.325,6.325,0,1,1,6.325,0" fill="#515A47" stroke="black" stroke-width="2.2" opacity="0.9"/><path aria-label="virus: A/HongKong/4801/2014; Median of titer: 642.35; timepoint: postvax" role="graphics-symbol" aria-roledescription="point" transform="translate(50,102.40916065660275)" d="M6.325,0A6.325,6.325,0,1,1,-6.325,0A6.325,6.325,0,1,1,6.325,0" fill="#515A47" stroke="black" stroke-width="2.2" opacity="0.9"/><path aria-label="virus: A/Kansas/14/2017; Median of titer: 833.65; timepoint: postvax" role="graphics-symbol" aria-roledescription="point" transform="translate(90,94.10611123530654)" d="M6.325,0A6.325,6.325,0,1,1,-6.325,0A6.325,6.325,0,1,1,6.325,0" fill="#515A47" stroke="black" stroke-width="2.2" opacity="0.9"/><path aria-label="virus: A/Massachusetts/18/2022; Median of titer: 1579.5; timepoint: postvax" role="graphics-symbol" aria-roledescription="point" transform="translate(170,73.75143538668058)" d="M6.325,0A6.325,6.325,0,1,1,-6.325,0A6.325,6.325,0,1,1,6.325,0" fill="#515A47" stroke="black" stroke-width="2.2" opacity="0.9"/><path aria-label="virus: A/Singapore/INFIMH-16-0019/2016; Median of titer: 658.9; timepoint: postvax" role="graphics-symbol" aria-roledescription="point" transform="translate(70,101.59890878693265)" d="M6.325,0A6.325,6.325,0,1,1,-6.325,0A6.325,6.325,0,1,1,6.325,0" fill="#515A47" stroke="black" stroke-width="2.2" opacity="0.9"/><path aria-label="virus: A/Switzerland/9715293/2013; Median of titer: 526.5; timepoint: postvax" role="graphics-symbol" aria-roledescription="point" transform="translate(30,108.74384296149)" d="M6.325,0A6.325,6.325,0,1,1,-6.325,0A6.325,6.325,0,1,1,6.325,0" fill="#515A47" stroke="black" stroke-width="2.2" opacity="0.9"/><path aria-label="virus: A/Texas/50/2012; Median of titer: 5975; timepoint: postvax" role="graphics-symbol" aria-roledescription="point" transform="translate(10,31.373837373183243)" d="M6.325,0A6.325,6.325,0,1,1,-6.325,0A6.325,6.325,0,1,1,6.325,0" fill="#515A47" stroke="black" stroke-width="2.2" opacity="0.9"/><path aria-label="virus: A/Cambodia/e0826360/2020; Median of titer: 51.64; timepoint: prevax" role="graphics-symbol" aria-roledescription="point" transform="translate(130,182.7014969637908)" d="M6.325,0A6.325,6.325,0,1,1,-6.325,0A6.325,6.325,0,1,1,6.325,0" fill="#A499B3" stroke="black" stroke-width="2.2" opacity="0.9"/><path aria-label="virus: A/Darwin/6/2021; Median of titer: 75.22; timepoint: prevax" role="graphics-symbol" aria-roledescription="point" transform="translate(150,170.72150637423778)" d="M6.325,0A6.325,6.325,0,1,1,-6.325,0A6.325,6.325,0,1,1,6.325,0" fill="#A499B3" stroke="black" stroke-width="2.2" opacity="0.9"/><path aria-label="virus: A/HongKong/45/2019; Median of titer: 119.76; timepoint: prevax" role="graphics-symbol" aria-roledescription="point" transform="translate(110,155.90826453591328)" d="M6.325,0A6.325,6.325,0,1,1,-6.325,0A6.325,6.325,0,1,1,6.325,0" fill="#A499B3" stroke="black" stroke-width="2.2" opacity="0.9"/><path aria-label="virus: A/HongKong/4801/2014; Median of titer: 305.2; timepoint: prevax" role="graphics-symbol" aria-roledescription="point" transform="translate(50,126.11193659590678)" d="M6.325,0A6.325,6.325,0,1,1,-6.325,0A6.325,6.325,0,1,1,6.325,0" fill="#A499B3" stroke="black" stroke-width="2.2" opacity="0.9"/><path aria-label="virus: A/Kansas/14/2017; Median of titer: 141.4; timepoint: prevax" role="graphics-symbol" aria-roledescription="point" transform="translate(90,150.6176407166292)" d="M6.325,0A6.325,6.325,0,1,1,-6.325,0A6.325,6.325,0,1,1,6.325,0" fill="#A499B3" stroke="black" stroke-width="2.2" opacity="0.9"/><path aria-label="virus: A/Massachusetts/18/2022; Median of titer: 135.6; timepoint: prevax" role="graphics-symbol" aria-roledescription="point" transform="translate(170,151.95168753839664)" d="M6.325,0A6.325,6.325,0,1,1,-6.325,0A6.325,6.325,0,1,1,6.325,0" fill="#A499B3" stroke="black" stroke-width="2.2" opacity="0.9"/><path aria-label="virus: A/Singapore/INFIMH-16-0019/2016; Median of titer: 273.65; timepoint: prevax" role="graphics-symbol" aria-roledescription="point" transform="translate(70,129.58748473744788)" d="M6.325,0A6.325,6.325,0,1,1,-6.325,0A6.325,6.325,0,1,1,6.325,0" fill="#A499B3" stroke="black" stroke-width="2.2" opacity="0.9"/><path aria-label="virus: A/Switzerland/9715293/2013; Median of titer: 110.5; timepoint: prevax" role="graphics-symbol" aria-roledescription="point" transform="translate(30,158.47148606996328)" d="M6.325,0A6.325,6.325,0,1,1,-6.325,0A6.325,6.325,0,1,1,6.325,0" fill="#A499B3" stroke="black" stroke-width="2.2" opacity="0.9"/><path aria-label="virus: A/Texas/50/2012; Median of titer: 2670.5; timepoint: prevax" role="graphics-symbol" aria-roledescription="point" transform="translate(10,57.024405063744624)" d="M6.325,0A6.325,6.325,0,1,1,-6.325,0A6.325,6.325,0,1,1,6.325,0" fill="#A499B3" stroke="black" stroke-width="2.2" opacity="0.9"/></g></g><path class="foreground" aria-hidden="true" d="" display="none"/></g></g></g><path class="foreground" aria-hidden="true" d="" display="none"/></g></g><g class="mark-group role-scope concat_1_group" role="graphics-object" aria-roledescription="group mark container"><g transform="translate(214,0)"><path class="background" aria-hidden="true" d="M0,0h0v0h0Z"/><g><g class="mark-group role-row-header concat_1_row_header" role="graphics-object" aria-roledescription="group mark container"><g transform="translate(-1,0)"><path class="background" aria-hidden="true" d="M0,0h0v200h0Z"/><g><g class="mark-group role-axis" role="graphics-symbol" aria-roledescription="axis" aria-label="Y-axis for a log scale with values from 30 to 16,000"><g transform="translate(0.5,0.5)"><path class="background" aria-hidden="true" d="M0,0h0v0h0Z" pointer-events="none"/><g><g class="mark-rule role-axis-tick" pointer-events="none"><line transform="translate(0,200)" x2="0" y2="0" stroke="#888" stroke-width="1" opacity="1"/><line transform="translate(0,191)" x2="0" y2="0" stroke="#888" stroke-width="1" opacity="1"/><line transform="translate(0,184)" x2="0" y2="0" stroke="#888" stroke-width="1" opacity="1"/><line transform="translate(0,178)" x2="0" y2="0" stroke="#888" stroke-width="1" opacity="1"/><line transform="translate(0,173)" x2="0" y2="0" stroke="#888" stroke-width="1" opacity="1"/><line transform="translate(0,169)" x2="0" y2="0" stroke="#888" stroke-width="1" opacity="1"/><line transform="translate(0,165)" x2="0" y2="0" stroke="#888" stroke-width="1" opacity="1"/><line transform="translate(0,162)" x2="0" y2="0" stroke="#888" stroke-width="1" opacity="1"/><line transform="translate(0,140)" x2="0" y2="0" stroke="#888" stroke-width="1" opacity="1"/><line transform="translate(0,127)" x2="0" y2="0" stroke="#888" stroke-width="1" opacity="1"/><line transform="translate(0,117)" x2="0" y2="0" stroke="#888" stroke-width="1" opacity="1"/><line transform="translate(0,110)" x2="0" y2="0" stroke="#888" stroke-width="1" opacity="1"/><line transform="translate(0,105)" x2="0" y2="0" stroke="#888" stroke-width="1" opacity="1"/><line transform="translate(0,100)" x2="0" y2="0" stroke="#888" stroke-width="1" opacity="1"/><line transform="translate(0,95)" x2="0" y2="0" stroke="#888" stroke-width="1" opacity="1"/><line transform="translate(0,92)" x2="0" y2="0" stroke="#888" stroke-width="1" opacity="1"/><line transform="translate(0,88)" x2="0" y2="0" stroke="#888" stroke-width="1" opacity="1"/><line transform="translate(0,66)" x2="0" y2="0" stroke="#888" stroke-width="1" opacity="1"/><line transform="translate(0,53)" x2="0" y2="0" stroke="#888" stroke-width="1" opacity="1"/><line transform="translate(0,44)" x2="0" y2="0" stroke="#888" stroke-width="1" opacity="1"/><line transform="translate(0,37)" x2="0" y2="0" stroke="#888" stroke-width="1" opacity="1"/><line transform="translate(0,31)" x2="0" y2="0" stroke="#888" stroke-width="1" opacity="1"/><line transform="translate(0,26)" x2="0" y2="0" stroke="#888" stroke-width="1" opacity="1"/><line transform="translate(0,22)" x2="0" y2="0" stroke="#888" stroke-width="1" opacity="1"/><line transform="translate(0,18)" x2="0" y2="0" stroke="#888" stroke-width="1" opacity="1"/><line transform="translate(0,15)" x2="0" y2="0" stroke="#888" stroke-width="1" opacity="1"/></g><g class="mark-text role-axis-label" pointer-events="none"><text text-anchor="end" transform="translate(-2,200)" font-family="sans-serif" font-size="0px" fill="#000" opacity="1">30</text><text text-anchor="end" transform="translate(-2,190.8369053987164)" font-family="sans-serif" font-size="0px" fill="#000" opacity="1"/><text text-anchor="end" transform="translate(-2,183.72945705154422)" font-family="sans-serif" font-size="0px" fill="#000" opacity="1"/><text text-anchor="end" transform="translate(-2,177.92224891195352)" font-family="sans-serif" font-size="0px" fill="#000" opacity="1"/><text text-anchor="end" transform="translate(-2,173.01232438981944)" font-family="sans-serif" font-size="0px" fill="#000" opacity="1"/><text text-anchor="end" transform="translate(-2,168.7591543106699)" font-family="sans-serif" font-size="0px" fill="#000" opacity="1"/><text text-anchor="end" transform="translate(-2,165.00759242519058)" font-family="sans-serif" font-size="0px" fill="#000" opacity="1"/><text text-anchor="end" transform="translate(-2,161.6517059634977)" font-family="sans-serif" font-size="0px" fill="#000" opacity="1">100</text><text text-anchor="end" transform="translate(-2,139.57395487545122)" font-family="sans-serif" font-size="0px" fill="#000" opacity="1">200</text><text text-anchor="end" transform="translate(-2,126.6592983886883)" font-family="sans-serif" font-size="0px" fill="#000" opacity="1">300</text><text text-anchor="end" transform="translate(-2,117.49620378740471)" font-family="sans-serif" font-size="0px" fill="#000" opacity="1"/><text text-anchor="end" transform="translate(-2,110.38875544023253)" font-family="sans-serif" font-size="0px" fill="#000" opacity="1"/><text text-anchor="end" transform="translate(-2,104.5815473006418)" font-family="sans-serif" font-size="0px" fill="#000" opacity="1"/><text text-anchor="end" transform="translate(-2,99.67162277850774)" font-family="sans-serif" font-size="0px" fill="#000" opacity="1"/><text text-anchor="end" transform="translate(-2,95.4184526993582)" font-family="sans-serif" font-size="0px" fill="#000" opacity="1"/><text text-anchor="end" transform="translate(-2,91.6668908138789)" font-family="sans-serif" font-size="0px" fill="#000" opacity="1"/><text text-anchor="end" transform="translate(-2,88.31100435218599)" font-family="sans-serif" font-size="0px" fill="#000" opacity="1">1,000</text><text text-anchor="end" transform="translate(-2,66.2332532641395)" font-family="sans-serif" font-size="0px" fill="#000" opacity="1">2,000</text><text text-anchor="end" transform="translate(-2,53.31859677737663)" font-family="sans-serif" font-size="0px" fill="#000" opacity="1">3,000</text><text text-anchor="end" transform="translate(-2,44.15550217609301)" font-family="sans-serif" font-size="0px" fill="#000" opacity="1"/><text text-anchor="end" transform="translate(-2,37.04805382892078)" font-family="sans-serif" font-size="0px" fill="#000" opacity="1"/><text text-anchor="end" transform="translate(-2,31.240845689330122)" font-family="sans-serif" font-size="0px" fill="#000" opacity="1"/><text text-anchor="end" transform="translate(-2,26.330921167196042)" font-family="sans-serif" font-size="0px" fill="#000" opacity="1"/><text text-anchor="end" transform="translate(-2,22.077751088046504)" font-family="sans-serif" font-size="0px" fill="#000" opacity="1"/><text text-anchor="end" transform="translate(-2,18.32618920256719)" font-family="sans-serif" font-size="0px" fill="#000" opacity="1"/><text text-anchor="end" transform="translate(-2,14.970302740874274)" font-family="sans-serif" font-size="0px" fill="#000" opacity="1">10,000</text></g><g class="mark-rule role-axis-domain" pointer-events="none"><line transform="translate(0,200)" x2="0" y2="-200" stroke="#888" stroke-width="1" opacity="1"/></g></g><path class="foreground" aria-hidden="true" d="" pointer-events="none" display="none"/></g></g><g class="mark-group role-title"><g transform="translate(-12,100)"><path class="background" aria-hidden="true" d="M0,0h0v0h0Z" pointer-events="none"/><g><g class="mark-text role-title-text" role="graphics-symbol" aria-roledescription="title" aria-label="Title text 'AusVaccineCohort'" pointer-events="none"><text text-anchor="middle" transform="translate(0,0) rotate(-90)" font-family="sans-serif" font-size="0px" font-weight="bold" fill="#000" opacity="1">AusVaccineCohort</text></g></g><path class="foreground" aria-hidden="true" d="" pointer-events="none" display="none"/></g></g></g><path class="foreground" aria-hidden="true" d="" display="none"/></g></g><g class="mark-group role-column-header concat_1_column_header" role="graphics-object" aria-roledescription="group mark container"><g transform="translate(0,-1)"><path class="background" aria-hidden="true" d="M0,0h180v0h-180Z"/><g><g class="mark-group role-title"><g transform="translate(90,-28)"><path class="background" aria-hidden="true" d="M0,0h0v0h0Z" pointer-events="none"/><g><g class="mark-text role-title-text" role="graphics-symbol" aria-roledescription="title" aria-label="Title text 'egg-passaged'" pointer-events="none"><text text-anchor="middle" transform="translate(0,14)" font-family="sans-serif" font-size="18px" font-weight="bold" fill="#000" opacity="1">egg-passaged</text></g></g><path class="foreground" aria-hidden="true" d="" pointer-events="none" display="none"/></g></g></g><path class="foreground" aria-hidden="true" d="" display="none"/></g></g><g class="mark-group role-column-footer concat_1_column_footer" role="graphics-object" aria-roledescription="group mark container"><g transform="translate(0,201)"><path class="background" aria-hidden="true" d="M0,0h180v0h-180Z"/><g><g class="mark-group role-axis" role="graphics-symbol" aria-roledescription="axis" aria-label="X-axis for a discrete scale with 8 values: A/Texas/50/2012X-223A, A/Switzerland/9715293/2013NIB-88, A/HongKong/4801/2014egg, A/Singapore/INFIMH-16-0019/2016X-307A, A/HongKong/2671/2019, ending with A/Thailand/8/2022"><g transform="translate(0.5,0.5)"><path class="background" aria-hidden="true" d="M0,0h0v0h0Z" pointer-events="none"/><g><g class="mark-rule role-axis-tick" pointer-events="none"><line transform="translate(11,0)" x2="0" y2="5" stroke="#888" stroke-width="1" opacity="1"/><line transform="translate(34,0)" x2="0" y2="5" stroke="#888" stroke-width="1" opacity="1"/><line transform="translate(56,0)" x2="0" y2="5" stroke="#888" stroke-width="1" opacity="1"/><line transform="translate(79,0)" x2="0" y2="5" stroke="#888" stroke-width="1" opacity="1"/><line transform="translate(101,0)" x2="0" y2="5" stroke="#888" stroke-width="1" opacity="1"/><line transform="translate(124,0)" x2="0" y2="5" stroke="#888" stroke-width="1" opacity="1"/><line transform="translate(146,0)" x2="0" y2="5" stroke="#888" stroke-width="1" opacity="1"/><line transform="translate(169,0)" x2="0" y2="5" stroke="#888" stroke-width="1" opacity="1"/></g><g class="mark-text role-axis-label" pointer-events="none"><text text-anchor="end" transform="translate(11.25,7) rotate(270) translate(0,5)" font-family="sans-serif" font-size="18px" font-weight="normal" fill="#000" opacity="1">A/Texas/50/2012X-223A</text><text text-anchor="end" transform="translate(33.75,7) rotate(270) translate(0,5)" font-family="sans-serif" font-size="18px" font-weight="normal" fill="#000" opacity="1">A/Switzerland/9715293/2013NIB-88</text><text text-anchor="end" transform="translate(56.25,7) rotate(270) translate(0,5)" font-family="sans-serif" font-size="18px" font-weight="normal" fill="#000" opacity="1">A/HongKong/4801/2014egg</text><text text-anchor="end" transform="translate(78.75,7) rotate(270) translate(0,5)" font-family="sans-serif" font-size="18px" font-weight="normal" fill="#000" opacity="1">A/Singapore/INFIMH-16-0019/2016X-307A</text><text text-anchor="end" transform="translate(101.25,7) rotate(270) translate(0,5)" font-family="sans-serif" font-size="18px" font-weight="normal" fill="#000" opacity="1">A/HongKong/2671/2019</text><text text-anchor="end" transform="translate(123.75,7) rotate(270) translate(0,5)" font-family="sans-serif" font-size="18px" font-weight="normal" fill="#000" opacity="1">A/Cambodia/e0826360/2020egg</text><text text-anchor="end" transform="translate(146.25,7) rotate(270) translate(0,5)" font-family="sans-serif" font-size="18px" font-weight="normal" fill="#000" opacity="1">A/Darwin/9/2021</text><text text-anchor="end" transform="translate(168.75,7) rotate(270) translate(0,5)" font-family="sans-serif" font-size="18px" font-weight="normal" fill="#000" opacity="1">A/Thailand/8/2022</text></g><g class="mark-rule role-axis-domain" pointer-events="none"><line transform="translate(0,0)" x2="180" y2="0" stroke="#888" stroke-width="1" opacity="1"/></g></g><path class="foreground" aria-hidden="true" d="" pointer-events="none" display="none"/></g></g></g><path class="foreground" aria-hidden="true" d="" display="none"/></g></g><g class="mark-group role-scope concat_1_cell" role="graphics-object" aria-roledescription="group mark container"><g transform="translate(0,0)"><path class="background" aria-hidden="true" d="M0.5,0.5h180v200h-180Z" stroke="#ddd"/><g><g class="mark-group role-scope concat_1_child_layer_0_layer_0_pathgroup" role="graphics-object" aria-roledescription="group mark container"><g transform="translate(0,0)"><path class="background" aria-hidden="true" d="M0,0h180v200h-180Z"/><g><g class="mark-area role-mark concat_1_child_layer_0_layer_0_marks" role="graphics-object" aria-roledescription="area mark container"><path aria-label="virus: A/Texas/50/2012X-223A; titer: 2953; upper_titer: 13410; timepoint: postvax; Q3 of titer: 13410; Q1 of titer: 2953; Median of titer: 8620" role="graphics-symbol" aria-roledescription="errorband" d="M11.25,53.822L33.75,78.641L56.25,68.289L78.75,67.542L101.25,97.711L123.75,83.372L146.25,70.111L168.75,66.209L168.75,20.243L146.25,18.848L123.75,30.328L101.25,24.306L78.75,30.28L56.25,21.021L33.75,55.326L11.25,5.625Z" fill="#515A47" opacity="0.4"/></g></g><path class="foreground" aria-hidden="true" d="" display="none"/></g><g transform="translate(0,0)"><path class="background" aria-hidden="true" d="M0,0h180v200h-180Z"/><g><g class="mark-area role-mark concat_1_child_layer_0_layer_0_marks" role="graphics-object" aria-roledescription="area mark container"><path aria-label="virus: A/Texas/50/2012X-223A; titer: 1355.5; upper_titer: 6920.5; timepoint: prevax; Q3 of titer: 6920.5; Q1 of titer: 1355.5; Median of titer: 3490.5" role="graphics-symbol" aria-roledescription="errorband" d="M11.25,78.623L33.75,126.953L56.25,99.546L78.75,102.168L101.25,142.23L123.75,147.037L146.25,143.05L168.75,151.803L168.75,107.842L146.25,102.103L123.75,62.436L101.25,43.603L78.75,36.105L56.25,36.11L33.75,76.958L11.25,26.695Z" fill="#A499B3" opacity="0.4"/></g></g><path class="foreground" aria-hidden="true" d="" display="none"/></g></g><g class="mark-symbol role-mark concat_1_child_layer_1_marks" role="graphics-object" aria-roledescription="symbol mark container"><path aria-label="virus: A/Cambodia/e0826360/2020egg; Median of titer: 1548; timepoint: postvax" role="graphics-symbol" aria-roledescription="point" transform="translate(123.75,74.39306926825667)" d="M6.325,0A6.325,6.325,0,1,1,-6.325,0A6.325,6.325,0,1,1,6.325,0" fill="#515A47" stroke="black" stroke-width="2.2" opacity="0.9"/><path aria-label="virus: A/Darwin/9/2021; Median of titer: 4844; timepoint: postvax" role="graphics-symbol" aria-roledescription="point" transform="translate(146.25,38.05765238311023)" d="M6.325,0A6.325,6.325,0,1,1,-6.325,0A6.325,6.325,0,1,1,6.325,0" fill="#515A47" stroke="black" stroke-width="2.2" opacity="0.9"/><path aria-label="virus: A/HongKong/2671/2019; Median of titer: 2466; timepoint: postvax" role="graphics-symbol" aria-roledescription="point" transform="translate(101.25,59.56195740588506)" d="M6.325,0A6.325,6.325,0,1,1,-6.325,0A6.325,6.325,0,1,1,6.325,0" fill="#515A47" stroke="black" stroke-width="2.2" opacity="0.9"/><path aria-label="virus: A/HongKong/4801/2014egg; Median of titer: 3486; timepoint: postvax" role="graphics-symbol" aria-roledescription="point" transform="translate(56.25,48.53633359651632)" d="M6.325,0A6.325,6.325,0,1,1,-6.325,0A6.325,6.325,0,1,1,6.325,0" fill="#515A47" stroke="black" stroke-width="2.2" opacity="0.9"/><path aria-label="virus: A/Singapore/INFIMH-16-0019/2016X-307A; Median of titer: 3572; timepoint: postvax" role="graphics-symbol" aria-roledescription="point" transform="translate(78.75,47.76009066437938)" d="M6.325,0A6.325,6.325,0,1,1,-6.325,0A6.325,6.325,0,1,1,6.325,0" fill="#515A47" stroke="black" stroke-width="2.2" opacity="0.9"/><path aria-label="virus: A/Switzerland/9715293/2013NIB-88; Median of titer: 2244; timepoint: postvax" role="graphics-symbol" aria-roledescription="point" transform="translate(33.75,62.56674206206232)" d="M6.325,0A6.325,6.325,0,1,1,-6.325,0A6.325,6.325,0,1,1,6.325,0" fill="#515A47" stroke="black" stroke-width="2.2" opacity="0.9"/><path aria-label="virus: A/Texas/50/2012X-223A; Median of titer: 8620; timepoint: postvax" role="graphics-symbol" aria-roledescription="point" transform="translate(11.25,19.700245114121696)" d="M6.325,0A6.325,6.325,0,1,1,-6.325,0A6.325,6.325,0,1,1,6.325,0" fill="#515A47" stroke="black" stroke-width="2.2" opacity="0.9"/><path aria-label="virus: A/Thailand/8/2022; Median of titer: 4572; timepoint: postvax" role="graphics-symbol" aria-roledescription="point" transform="translate(168.75,39.89835091301117)" d="M6.325,0A6.325,6.325,0,1,1,-6.325,0A6.325,6.325,0,1,1,6.325,0" fill="#515A47" stroke="black" stroke-width="2.2" opacity="0.9"/><path aria-label="virus: A/Cambodia/e0826360/2020egg; Median of titer: 892.55; timepoint: prevax" role="graphics-symbol" aria-roledescription="point" transform="translate(123.75,91.93164745468918)" d="M6.325,0A6.325,6.325,0,1,1,-6.325,0A6.325,6.325,0,1,1,6.325,0" fill="#A499B3" stroke="black" stroke-width="2.2" opacity="0.9"/><path aria-label="virus: A/Darwin/9/2021; Median of titer: 221.85; timepoint: prevax" role="graphics-symbol" aria-roledescription="point" transform="translate(146.25,136.2714643442092)" d="M6.325,0A6.325,6.325,0,1,1,-6.325,0A6.325,6.325,0,1,1,6.325,0" fill="#A499B3" stroke="black" stroke-width="2.2" opacity="0.9"/><path aria-label="virus: A/HongKong/2671/2019; Median of titer: 1179.35; timepoint: prevax" role="graphics-symbol" aria-roledescription="point" transform="translate(101.25,83.05667763416096)" d="M6.325,0A6.325,6.325,0,1,1,-6.325,0A6.325,6.325,0,1,1,6.325,0" fill="#A499B3" stroke="black" stroke-width="2.2" opacity="0.9"/><path aria-label="virus: A/HongKong/4801/2014egg; Median of titer: 1066.5; timepoint: prevax" role="graphics-symbol" aria-roledescription="point" transform="translate(56.25,86.26033527786576)" d="M6.325,0A6.325,6.325,0,1,1,-6.325,0A6.325,6.325,0,1,1,6.325,0" fill="#A499B3" stroke="black" stroke-width="2.2" opacity="0.9"/><path aria-label="virus: A/Singapore/INFIMH-16-0019/2016X-307A; Median of titer: 720.3; timepoint: prevax" role="graphics-symbol" aria-roledescription="point" transform="translate(78.75,98.76107048266354)" d="M6.325,0A6.325,6.325,0,1,1,-6.325,0A6.325,6.325,0,1,1,6.325,0" fill="#A499B3" stroke="black" stroke-width="2.2" opacity="0.9"/><path aria-label="virus: A/Switzerland/9715293/2013NIB-88; Median of titer: 422; timepoint: prevax" role="graphics-symbol" aria-roledescription="point" transform="translate(33.75,115.79085208367958)" d="M6.325,0A6.325,6.325,0,1,1,-6.325,0A6.325,6.325,0,1,1,6.325,0" fill="#A499B3" stroke="black" stroke-width="2.2" opacity="0.9"/><path aria-label="virus: A/Texas/50/2012X-223A; Median of titer: 3490.5; timepoint: prevax" role="graphics-symbol" aria-roledescription="point" transform="translate(11.25,48.495243766682705)" d="M6.325,0A6.325,6.325,0,1,1,-6.325,0A6.325,6.325,0,1,1,6.325,0" fill="#A499B3" stroke="black" stroke-width="2.2" opacity="0.9"/><path aria-label="virus: A/Thailand/8/2022; Median of titer: 242.25; timepoint: prevax" role="graphics-symbol" aria-roledescription="point" transform="translate(168.75,133.4695303147686)" d="M6.325,0A6.325,6.325,0,1,1,-6.325,0A6.325,6.325,0,1,1,6.325,0" fill="#A499B3" stroke="black" stroke-width="2.2" opacity="0.9"/></g></g><path class="foreground" aria-hidden="true" d="" display="none"/></g></g></g><path class="foreground" aria-hidden="true" d="" display="none"/></g></g><g class="mark-group role-legend" role="graphics-symbol" aria-roledescription="legend" aria-label="Symbol legend titled 'timepoint' for fill color with 2 values: prevax, postvax"><g transform="translate(413,0)"><path class="background" aria-hidden="true" d="M10.5,0.5L95.5,0.5C101.01915024494,0.5,105.5,4.98084975506,105.5,10.5L105.5,71.5C105.5,77.01915024494,101.01915024494,81.5,95.5,81.5L10.5,81.5C4.98084975506,81.5,0.5,77.01915024494,0.5,71.5L0.5,10.5C0.5,4.98084975506,4.98084975506,0.5,10.5,0.5Z" pointer-events="none" stroke="gray"/><g><g class="mark-group role-legend-entry"><g transform="translate(10,33)"><path class="background" aria-hidden="true" d="M0,0h0v0h0Z" pointer-events="none"/><g><g class="mark-group role-scope" role="graphics-object" aria-roledescription="group mark container"><g transform="translate(0,0)"><path class="background" aria-hidden="true" d="M0,0h84.033203125v18h-84.033203125Z" pointer-events="none" opacity="1"/><g><g class="mark-symbol role-legend-symbol" pointer-events="none"><path transform="translate(9,9)" d="M6.325,0A6.325,6.325,0,1,1,-6.325,0A6.325,6.325,0,1,1,6.325,0" fill="#A499B3" stroke="black" stroke-width="2.2" opacity="0.9"/></g><g class="mark-text role-legend-label" pointer-events="none"><text text-anchor="start" transform="translate(22,14)" font-family="sans-serif" font-size="18px" fill="#000" opacity="1">prevax</text></g></g><path class="foreground" aria-hidden="true" d="" pointer-events="none" display="none"/></g><g transform="translate(0,20)"><path class="background" aria-hidden="true" d="M0,0h84.033203125v18h-84.033203125Z" pointer-events="none" opacity="1"/><g><g class="mark-symbol role-legend-symbol" pointer-events="none"><path transform="translate(9,9)" d="M6.325,0A6.325,6.325,0,1,1,-6.325,0A6.325,6.325,0,1,1,6.325,0" fill="#515A47" stroke="black" stroke-width="2.2" opacity="0.9"/></g><g class="mark-text role-legend-label" pointer-events="none"><text text-anchor="start" transform="translate(22,14)" font-family="sans-serif" font-size="18px" fill="#000" opacity="1">postvax</text></g></g><path class="foreground" aria-hidden="true" d="" pointer-events="none" display="none"/></g></g></g><path class="foreground" aria-hidden="true" d="" pointer-events="none" display="none"/></g></g><g class="mark-text role-legend-title" pointer-events="none"><text text-anchor="start" transform="translate(10,24)" font-family="sans-serif" font-size="18px" font-weight="bold" fill="#000" opacity="1">timepoint</text></g></g><path class="foreground" aria-hidden="true" d="" pointer-events="none" display="none"/></g></g></g><path class="foreground" aria-hidden="true" d="" display="none"/></g></g></g></svg>