<svg xmlns="http://www.w3.org/2000/svg" xmlns:xlink="http://www.w3.org/1999/xlink" version="1.1" class="marks" width="501" height="591" viewBox="0 0 501 591"><rect width="501" height="591" fill="white"/><g fill="none" stroke-miterlimit="10" transform="translate(101,34)"><g class="mark-group role-frame root" role="graphics-object" aria-roledescription="group mark container"><g transform="translate(0,0)"><path class="background" aria-hidden="true" d="M0,0h0v0h0Z"/><g><g class="mark-group role-scope concat_0_group" role="graphics-object" aria-roledescription="group mark container"><g transform="translate(0,0)"><path class="background" aria-hidden="true" d="M0,0h0v0h0Z"/><g><g class="mark-group role-row-header concat_0_row_header" role="graphics-object" aria-roledescription="group mark container"><g transform="translate(-1,0)"><path class="background" aria-hidden="true" d="M0,0h0v200h0Z"/><g><g class="mark-group role-axis" role="graphics-symbol" aria-roledescription="axis" aria-label="Y-axis titled 'neutralization titer' for a log scale with values from 30 to 16,000"><g transform="translate(0.5,0.5)"><path class="background" aria-hidden="true" d="M0,0h0v0h0Z" pointer-events="none"/><g><g class="mark-rule role-axis-tick" pointer-events="none"><line transform="translate(0,200)" x2="-5" y2="0" stroke="#888" stroke-width="1" opacity="1"/><line transform="translate(0,191)" x2="-5" y2="0" stroke="#888" stroke-width="1" opacity="1"/><line transform="translate(0,184)" x2="-5" y2="0" stroke="#888" stroke-width="1" opacity="1"/><line transform="translate(0,178)" x2="-5" y2="0" stroke="#888" stroke-width="1" opacity="1"/><line transform="translate(0,173)" x2="-5" y2="0" stroke="#888" stroke-width="1" opacity="1"/><line transform="translate(0,169)" x2="-5" y2="0" stroke="#888" stroke-width="1" opacity="1"/><line transform="translate(0,165)" x2="-5" y2="0" stroke="#888" stroke-width="1" opacity="1"/><line transform="translate(0,162)" x2="-5" y2="0" stroke="#888" stroke-width="1" opacity="1"/><line transform="translate(0,140)" x2="-5" y2="0" stroke="#888" stroke-width="1" opacity="1"/><line transform="translate(0,127)" x2="-5" y2="0" stroke="#888" stroke-width="1" opacity="1"/><line transform="translate(0,117)" x2="-5" y2="0" stroke="#888" stroke-width="1" opacity="1"/><line transform="translate(0,110)" x2="-5" y2="0" stroke="#888" stroke-width="1" opacity="1"/><line transform="translate(0,105)" x2="-5" y2="0" stroke="#888" stroke-width="1" opacity="1"/><line transform="translate(0,100)" x2="-5" y2="0" stroke="#888" stroke-width="1" opacity="1"/><line transform="translate(0,95)" x2="-5" y2="0" stroke="#888" stroke-width="1" opacity="1"/><line transform="translate(0,92)" x2="-5" y2="0" stroke="#888" stroke-width="1" opacity="1"/><line transform="translate(0,88)" x2="-5" y2="0" stroke="#888" stroke-width="1" opacity="1"/><line transform="translate(0,66)" x2="-5" y2="0" stroke="#888" stroke-width="1" opacity="1"/><line transform="translate(0,53)" x2="-5" y2="0" stroke="#888" stroke-width="1" opacity="1"/><line transform="translate(0,44)" x2="-5" y2="0" stroke="#888" stroke-width="1" opacity="1"/><line transform="translate(0,37)" x2="-5" y2="0" stroke="#888" stroke-width="1" opacity="1"/><line transform="translate(0,31)" x2="-5" y2="0" stroke="#888" stroke-width="1" opacity="1"/><line transform="translate(0,26)" x2="-5" y2="0" stroke="#888" stroke-width="1" opacity="1"/><line transform="translate(0,22)" x2="-5" y2="0" stroke="#888" stroke-width="1" opacity="1"/><line transform="translate(0,18)" x2="-5" y2="0" stroke="#888" stroke-width="1" opacity="1"/><line transform="translate(0,15)" x2="-5" y2="0" stroke="#888" stroke-width="1" opacity="1"/></g><g class="mark-text role-axis-label" pointer-events="none"><text text-anchor="end" transform="translate(-7,205)" font-family="sans-serif" font-size="18px" fill="#000" opacity="1">30</text><text text-anchor="end" transform="translate(-7,195.8369053987164)" font-family="sans-serif" font-size="18px" fill="#000" opacity="1"/><text text-anchor="end" transform="translate(-7,188.72945705154422)" font-family="sans-serif" font-size="18px" fill="#000" opacity="1"/><text text-anchor="end" transform="translate(-7,182.92224891195352)" font-family="sans-serif" font-size="18px" fill="#000" opacity="1"/><text text-anchor="end" transform="translate(-7,178.01232438981944)" font-family="sans-serif" font-size="18px" fill="#000" opacity="1"/><text text-anchor="end" transform="translate(-7,173.7591543106699)" font-family="sans-serif" font-size="18px" fill="#000" opacity="1"/><text text-anchor="end" transform="translate(-7,170.00759242519058)" font-family="sans-serif" font-size="18px" fill="#000" opacity="1"/><text text-anchor="end" transform="translate(-7,166.6517059634977)" font-family="sans-serif" font-size="18px" fill="#000" opacity="1">100</text><text text-anchor="end" transform="translate(-7,144.57395487545122)" font-family="sans-serif" font-size="18px" fill="#000" opacity="1">200</text><text text-anchor="end" transform="translate(-7,131.65929838868828)" font-family="sans-serif" font-size="18px" fill="#000" opacity="0">300</text><text text-anchor="end" transform="translate(-7,122.49620378740471)" font-family="sans-serif" font-size="18px" fill="#000" opacity="1"/><text text-anchor="end" transform="translate(-7,115.38875544023253)" font-family="sans-serif" font-size="18px" fill="#000" opacity="1"/><text text-anchor="end" transform="translate(-7,109.5815473006418)" font-family="sans-serif" font-size="18px" fill="#000" opacity="1"/><text text-anchor="end" transform="translate(-7,104.67162277850774)" font-family="sans-serif" font-size="18px" fill="#000" opacity="1"/><text text-anchor="end" transform="translate(-7,100.4184526993582)" font-family="sans-serif" font-size="18px" fill="#000" opacity="1"/><text text-anchor="end" transform="translate(-7,96.6668908138789)" font-family="sans-serif" font-size="18px" fill="#000" opacity="1"/><text text-anchor="end" transform="translate(-7,93.31100435218599)" font-family="sans-serif" font-size="18px" fill="#000" opacity="1">1,000</text><text text-anchor="end" transform="translate(-7,71.2332532641395)" font-family="sans-serif" font-size="18px" fill="#000" opacity="1">2,000</text><text text-anchor="end" transform="translate(-7,58.31859677737663)" font-family="sans-serif" font-size="18px" fill="#000" opacity="0">3,000</text><text text-anchor="end" transform="translate(-7,49.15550217609301)" font-family="sans-serif" font-size="18px" fill="#000" opacity="1"/><text text-anchor="end" transform="translate(-7,42.04805382892078)" font-family="sans-serif" font-size="18px" fill="#000" opacity="1"/><text text-anchor="end" transform="translate(-7,36.24084568933012)" font-family="sans-serif" font-size="18px" fill="#000" opacity="1"/><text text-anchor="end" transform="translate(-7,31.330921167196042)" font-family="sans-serif" font-size="18px" fill="#000" opacity="1"/><text text-anchor="end" transform="translate(-7,27.077751088046504)" font-family="sans-serif" font-size="18px" fill="#000" opacity="1"/><text text-anchor="end" transform="translate(-7,23.32618920256719)" font-family="sans-serif" font-size="18px" fill="#000" opacity="1"/><text text-anchor="end" transform="translate(-7,19.970302740874274)" font-family="sans-serif" font-size="18px" fill="#000" opacity="1">10,000</text></g><g class="mark-rule role-axis-domain" pointer-events="none"><line transform="translate(0,200)" x2="0" y2="-200" stroke="#888" stroke-width="1" opacity="1"/></g><g class="mark-text role-axis-title" pointer-events="none"><text text-anchor="middle" transform="translate(-66.0546875,100) rotate(-90) translate(0,-4)" font-family="sans-serif" font-size="18px" font-weight="bold" fill="#000" opacity="1">neutralization titer</text></g></g><path class="foreground" aria-hidden="true" d="" pointer-events="none" display="none"/></g></g><g class="mark-group role-title"><g transform="translate(-94.0546875,100)"><path class="background" aria-hidden="true" d="M0,0h0v0h0Z" pointer-events="none"/><g><g class="mark-text role-title-text" role="graphics-symbol" aria-roledescription="title" aria-label="Title text 'PennVaccineCohort'" pointer-events="none"><text text-anchor="middle" transform="translate(0,0) rotate(-90)" font-family="sans-serif" font-size="0px" font-weight="bold" fill="#000" opacity="1">PennVaccineCohort</text></g></g><path class="foreground" aria-hidden="true" d="" pointer-events="none" display="none"/></g></g></g><path class="foreground" aria-hidden="true" d="" display="none"/></g></g><g class="mark-group role-column-header concat_0_column_header" role="graphics-object" aria-roledescription="group mark container"><g transform="translate(0,-1)"><path class="background" aria-hidden="true" d="M0,0h180v0h-180Z"/><g><g class="mark-group role-title"><g transform="translate(90,-28)"><path class="background" aria-hidden="true" d="M0,0h0v0h0Z" pointer-events="none"/><g><g class="mark-text role-title-text" role="graphics-symbol" aria-roledescription="title" aria-label="Title text 'cell-passaged'" pointer-events="none"><text text-anchor="middle" transform="translate(0,14)" font-family="sans-serif" font-size="18px" font-weight="bold" fill="#000" opacity="1">cell-passaged</text></g></g><path class="foreground" aria-hidden="true" d="" pointer-events="none" display="none"/></g></g></g><path class="foreground" aria-hidden="true" d="" display="none"/></g></g><g class="mark-group role-column-footer concat_0_column_footer" role="graphics-object" aria-roledescription="group mark container"><g transform="translate(0,201)"><path class="background" aria-hidden="true" d="M0,0h180v0h-180Z"/><g><g class="mark-group role-axis" role="graphics-symbol" aria-roledescription="axis" aria-label="X-axis for a discrete scale with 9 values: A/Texas/50/2012, A/Switzerland/9715293/2013, A/HongKong/4801/2014, A/Singapore/INFIMH-16-0019/2016, A/Kansas/14/2017, ending with A/Massachusetts/18/2022"><g transform="translate(0.5,0.5)"><path class="background" aria-hidden="true" d="M0,0h0v0h0Z" pointer-events="none"/><g><g class="mark-rule role-axis-tick" pointer-events="none"><line transform="translate(10,0)" x2="0" y2="5" stroke="#888" stroke-width="1" opacity="1"/><line transform="translate(30,0)" x2="0" y2="5" stroke="#888" stroke-width="1" opacity="1"/><line transform="translate(50,0)" x2="0" y2="5" stroke="#888" stroke-width="1" opacity="1"/><line transform="translate(70,0)" x2="0" y2="5" stroke="#888" stroke-width="1" opacity="1"/><line transform="translate(90,0)" x2="0" y2="5" stroke="#888" stroke-width="1" opacity="1"/><line transform="translate(110,0)" x2="0" y2="5" stroke="#888" stroke-width="1" opacity="1"/><line transform="translate(130,0)" x2="0" y2="5" stroke="#888" stroke-width="1" opacity="1"/><line transform="translate(150,0)" x2="0" y2="5" stroke="#888" stroke-width="1" opacity="1"/><line transform="translate(170,0)" x2="0" y2="5" stroke="#888" stroke-width="1" opacity="1"/></g><g class="mark-text role-axis-label" pointer-events="none"><text text-anchor="end" transform="translate(10,7) rotate(270) translate(0,5)" font-family="sans-serif" font-size="18px" font-weight="normal" fill="#000" opacity="1">A/Texas/50/2012</text><text text-anchor="end" transform="translate(30,7) rotate(270) translate(0,5)" font-family="sans-serif" font-size="18px" font-weight="normal" fill="#000" opacity="1">A/Switzerland/9715293/2013</text><text text-anchor="end" transform="translate(50,7) rotate(270) translate(0,5)" font-family="sans-serif" font-size="18px" font-weight="normal" fill="#000" opacity="1">A/HongKong/4801/2014</text><text text-anchor="end" transform="translate(70,7) rotate(270) translate(0,5)" font-family="sans-serif" font-size="18px" font-weight="normal" fill="#000" opacity="1">A/Singapore/INFIMH-16-0019/2016</text><text text-anchor="end" transform="translate(90,7) rotate(270) translate(0,5)" font-family="sans-serif" font-size="18px" font-weight="normal" fill="#000" opacity="1">A/Kansas/14/2017</text><text text-anchor="end" transform="translate(110,7) rotate(270) translate(0,5)" font-family="sans-serif" font-size="18px" font-weight="normal" fill="#000" opacity="1">A/HongKong/45/2019</text><text text-anchor="end" transform="translate(130,7) rotate(270) translate(0,5)" font-family="sans-serif" font-size="18px" font-weight="normal" fill="#000" opacity="1">A/Cambodia/e0826360/2020</text><text text-anchor="end" transform="translate(150,7) rotate(270) translate(0,5)" font-family="sans-serif" font-size="18px" font-weight="normal" fill="#000" opacity="1">A/Darwin/6/2021</text><text text-anchor="end" transform="translate(170,7) rotate(270) translate(0,5)" font-family="sans-serif" font-size="18px" font-weight="normal" fill="#000" opacity="1">A/Massachusetts/18/2022</text></g><g class="mark-rule role-axis-domain" pointer-events="none"><line transform="translate(0,0)" x2="180" y2="0" stroke="#888" stroke-width="1" opacity="1"/></g></g><path class="foreground" aria-hidden="true" d="" pointer-events="none" display="none"/></g></g></g><path class="foreground" aria-hidden="true" d="" display="none"/></g></g><g class="mark-group role-scope concat_0_cell" role="graphics-object" aria-roledescription="group mark container"><g transform="translate(0,0)"><path class="background" aria-hidden="true" d="M0.5,0.5h180v200h-180Z" stroke="#ddd"/><g><g class="mark-group role-scope concat_0_child_layer_0_layer_0_pathgroup" role="graphics-object" aria-roledescription="group mark container"><g transform="translate(0,0)"><path class="background" aria-hidden="true" d="M0,0h180v200h-180Z"/><g><g class="mark-area role-mark concat_0_child_layer_0_layer_0_marks" role="graphics-object" aria-roledescription="area mark container"><path aria-label="virus: A/Texas/50/2012; titer: 683.3; upper_titer: 5962.5; timepoint: prevax; Q3 of titer: 5962.5; Q1 of titer: 683.3; Median of titer: 1774" role="graphics-symbol" aria-roledescription="errorband" d="M10,100.441L30,164.011L50,164.137L70,168.66L90,166.612L110,176.383L130,190.837L150,189.511L170,162.95L170,129.582L150,155.871L130,131.83L110,96.549L90,101.652L70,98.752L50,93.942L30,110.507L10,31.441Z" fill="#A499B3" opacity="0.4"/></g></g><path class="foreground" aria-hidden="true" d="" display="none"/></g><g transform="translate(0,0)"><path class="background" aria-hidden="true" d="M0,0h180v200h-180Z"/><g><g class="mark-area role-mark concat_0_child_layer_0_layer_0_marks" role="graphics-object" aria-roledescription="area mark container"><path aria-label="virus: A/Texas/50/2012; titer: 790.15; upper_titer: 9328.5; timepoint: postvax; Q3 of titer: 9328.5; Q1 of titer: 790.15; Median of titer: 2711" role="graphics-symbol" aria-roledescription="errorband" d="M10,95.813L30,150.787L50,151.753L70,156.058L90,140.974L110,157.214L130,164.689L150,152.773L170,133.568L170,91.201L150,109.528L130,114.638L110,81.524L90,89.324L70,86.052L50,84.716L30,95.837L10,17.184Z" fill="#515A47" opacity="0.4"/></g></g><path class="foreground" aria-hidden="true" d="" display="none"/></g></g><g class="mark-symbol role-mark concat_0_child_layer_1_marks" role="graphics-object" aria-roledescription="symbol mark container"><path aria-label="virus: A/Cambodia/e0826360/2020; Median of titer: 84; timepoint: prevax" role="graphics-symbol" aria-roledescription="point" transform="translate(130,167.20511625022874)" d="M6.325,0A6.325,6.325,0,1,1,-6.325,0A6.325,6.325,0,1,1,6.325,0" fill="#A499B3" stroke="black" stroke-width="2.2" opacity="0.9"/><path aria-label="virus: A/Darwin/6/2021; Median of titer: 69.57; timepoint: prevax" role="graphics-symbol" aria-roledescription="point" transform="translate(150,173.20858679575258)" d="M6.325,0A6.325,6.325,0,1,1,-6.325,0A6.325,6.325,0,1,1,6.325,0" fill="#A499B3" stroke="black" stroke-width="2.2" opacity="0.9"/><path aria-label="virus: A/HongKong/45/2019; Median of titer: 188.2; timepoint: prevax" role="graphics-symbol" aria-roledescription="point" transform="translate(110,141.51091042311512)" d="M6.325,0A6.325,6.325,0,1,1,-6.325,0A6.325,6.325,0,1,1,6.325,0" fill="#A499B3" stroke="black" stroke-width="2.2" opacity="0.9"/><path aria-label="virus: A/HongKong/4801/2014; Median of titer: 229.9; timepoint: prevax" role="graphics-symbol" aria-roledescription="point" transform="translate(50,135.1361841507769)" d="M6.325,0A6.325,6.325,0,1,1,-6.325,0A6.325,6.325,0,1,1,6.325,0" fill="#A499B3" stroke="black" stroke-width="2.2" opacity="0.9"/><path aria-label="virus: A/Kansas/14/2017; Median of titer: 185.2; timepoint: prevax" role="graphics-symbol" aria-roledescription="point" transform="translate(90,142.02272853830758)" d="M6.325,0A6.325,6.325,0,1,1,-6.325,0A6.325,6.325,0,1,1,6.325,0" fill="#A499B3" stroke="black" stroke-width="2.2" opacity="0.9"/><path aria-label="virus: A/Massachusetts/18/2022; Median of titer: 145.1; timepoint: prevax" role="graphics-symbol" aria-roledescription="point" transform="translate(170,149.79490450762887)" d="M6.325,0A6.325,6.325,0,1,1,-6.325,0A6.325,6.325,0,1,1,6.325,0" fill="#A499B3" stroke="black" stroke-width="2.2" opacity="0.9"/><path aria-label="virus: A/Singapore/INFIMH-16-0019/2016; Median of titer: 220.5; timepoint: prevax" role="graphics-symbol" aria-roledescription="point" transform="translate(70,136.46587875456885)" d="M6.325,0A6.325,6.325,0,1,1,-6.325,0A6.325,6.325,0,1,1,6.325,0" fill="#A499B3" stroke="black" stroke-width="2.2" opacity="0.9"/><path aria-label="virus: A/Switzerland/9715293/2013; Median of titer: 164.9; timepoint: prevax" role="graphics-symbol" aria-roledescription="point" transform="translate(30,145.72059067405957)" d="M6.325,0A6.325,6.325,0,1,1,-6.325,0A6.325,6.325,0,1,1,6.325,0" fill="#A499B3" stroke="black" stroke-width="2.2" opacity="0.9"/><path aria-label="virus: A/Texas/50/2012; Median of titer: 1774; timepoint: prevax" role="graphics-symbol" aria-roledescription="point" transform="translate(10,70.0525715230581)" d="M6.325,0A6.325,6.325,0,1,1,-6.325,0A6.325,6.325,0,1,1,6.325,0" fill="#A499B3" stroke="black" stroke-width="2.2" opacity="0.9"/><path aria-label="virus: A/Cambodia/e0826360/2020; Median of titer: 207.3; timepoint: postvax" role="graphics-symbol" aria-roledescription="point" transform="translate(130,138.4320910182823)" d="M6.325,0A6.325,6.325,0,1,1,-6.325,0A6.325,6.325,0,1,1,6.325,0" fill="#515A47" stroke="black" stroke-width="2.2" opacity="0.9"/><path aria-label="virus: A/Darwin/6/2021; Median of titer: 226.2; timepoint: postvax" role="graphics-symbol" aria-roledescription="point" transform="translate(150,135.65296992024994)" d="M6.325,0A6.325,6.325,0,1,1,-6.325,0A6.325,6.325,0,1,1,6.325,0" fill="#515A47" stroke="black" stroke-width="2.2" opacity="0.9"/><path aria-label="virus: A/HongKong/45/2019; Median of titer: 364.7; timepoint: postvax" role="graphics-symbol" aria-roledescription="point" transform="translate(110,120.43894282157699)" d="M6.325,0A6.325,6.325,0,1,1,-6.325,0A6.325,6.325,0,1,1,6.325,0" fill="#515A47" stroke="black" stroke-width="2.2" opacity="0.9"/><path aria-label="virus: A/HongKong/4801/2014; Median of titer: 375.4; timepoint: postvax" role="graphics-symbol" aria-roledescription="point" transform="translate(50,119.51789325577464)" d="M6.325,0A6.325,6.325,0,1,1,-6.325,0A6.325,6.325,0,1,1,6.325,0" fill="#515A47" stroke="black" stroke-width="2.2" opacity="0.9"/><path aria-label="virus: A/Kansas/14/2017; Median of titer: 331.3; timepoint: postvax" role="graphics-symbol" aria-roledescription="point" transform="translate(90,123.49830086267075)" d="M6.325,0A6.325,6.325,0,1,1,-6.325,0A6.325,6.325,0,1,1,6.325,0" fill="#515A47" stroke="black" stroke-width="2.2" opacity="0.9"/><path aria-label="virus: A/Massachusetts/18/2022; Median of titer: 442.2; timepoint: postvax" role="graphics-symbol" aria-roledescription="point" transform="translate(170,114.30157472736866)" d="M6.325,0A6.325,6.325,0,1,1,-6.325,0A6.325,6.325,0,1,1,6.325,0" fill="#515A47" stroke="black" stroke-width="2.2" opacity="0.9"/><path aria-label="virus: A/Singapore/INFIMH-16-0019/2016; Median of titer: 393.5; timepoint: postvax" role="graphics-symbol" aria-roledescription="point" transform="translate(70,118.01804155432319)" d="M6.325,0A6.325,6.325,0,1,1,-6.325,0A6.325,6.325,0,1,1,6.325,0" fill="#515A47" stroke="black" stroke-width="2.2" opacity="0.9"/><path aria-label="virus: A/Switzerland/9715293/2013; Median of titer: 262; timepoint: postvax" role="graphics-symbol" aria-roledescription="point" transform="translate(30,130.9731957731899)" d="M6.325,0A6.325,6.325,0,1,1,-6.325,0A6.325,6.325,0,1,1,6.325,0" fill="#515A47" stroke="black" stroke-width="2.2" opacity="0.9"/><path aria-label="virus: A/Texas/50/2012; Median of titer: 2711; timepoint: postvax" role="graphics-symbol" aria-roledescription="point" transform="translate(10,56.544981644264226)" d="M6.325,0A6.325,6.325,0,1,1,-6.325,0A6.325,6.325,0,1,1,6.325,0" fill="#515A47" stroke="black" stroke-width="2.2" opacity="0.9"/></g></g><path class="foreground" aria-hidden="true" d="" display="none"/></g></g></g><path class="foreground" aria-hidden="true" d="" display="none"/></g></g><g class="mark-group role-scope concat_1_group" role="graphics-object" aria-roledescription="group mark container"><g transform="translate(214,0)"><path class="background" aria-hidden="true" d="M0,0h0v0h0Z"/><g><g class="mark-group role-row-header concat_1_row_header" role="graphics-object" aria-roledescription="group mark container"><g transform="translate(-1,0)"><path class="background" aria-hidden="true" d="M0,0h0v200h0Z"/><g><g class="mark-group role-axis" role="graphics-symbol" aria-roledescription="axis" aria-label="Y-axis for a log scale with values from 30 to 16,000"><g transform="translate(0.5,0.5)"><path class="background" aria-hidden="true" d="M0,0h0v0h0Z" pointer-events="none"/><g><g class="mark-rule role-axis-tick" pointer-events="none"><line transform="translate(0,200)" x2="0" y2="0" stroke="#888" stroke-width="1" opacity="1"/><line transform="translate(0,191)" x2="0" y2="0" stroke="#888" stroke-width="1" opacity="1"/><line transform="translate(0,184)" x2="0" y2="0" stroke="#888" stroke-width="1" opacity="1"/><line transform="translate(0,178)" x2="0" y2="0" stroke="#888" stroke-width="1" opacity="1"/><line transform="translate(0,173)" x2="0" y2="0" stroke="#888" stroke-width="1" opacity="1"/><line transform="translate(0,169)" x2="0" y2="0" stroke="#888" stroke-width="1" opacity="1"/><line transform="translate(0,165)" x2="0" y2="0" stroke="#888" stroke-width="1" opacity="1"/><line transform="translate(0,162)" x2="0" y2="0" stroke="#888" stroke-width="1" opacity="1"/><line transform="translate(0,140)" x2="0" y2="0" stroke="#888" stroke-width="1" opacity="1"/><line transform="translate(0,127)" x2="0" y2="0" stroke="#888" stroke-width="1" opacity="1"/><line transform="translate(0,117)" x2="0" y2="0" stroke="#888" stroke-width="1" opacity="1"/><line transform="translate(0,110)" x2="0" y2="0" stroke="#888" stroke-width="1" opacity="1"/><line transform="translate(0,105)" x2="0" y2="0" stroke="#888" stroke-width="1" opacity="1"/><line transform="translate(0,100)" x2="0" y2="0" stroke="#888" stroke-width="1" opacity="1"/><line transform="translate(0,95)" x2="0" y2="0" stroke="#888" stroke-width="1" opacity="1"/><line transform="translate(0,92)" x2="0" y2="0" stroke="#888" stroke-width="1" opacity="1"/><line transform="translate(0,88)" x2="0" y2="0" stroke="#888" stroke-width="1" opacity="1"/><line transform="translate(0,66)" x2="0" y2="0" stroke="#888" stroke-width="1" opacity="1"/><line transform="translate(0,53)" x2="0" y2="0" stroke="#888" stroke-width="1" opacity="1"/><line transform="translate(0,44)" x2="0" y2="0" stroke="#888" stroke-width="1" opacity="1"/><line transform="translate(0,37)" x2="0" y2="0" stroke="#888" stroke-width="1" opacity="1"/><line transform="translate(0,31)" x2="0" y2="0" stroke="#888" stroke-width="1" opacity="1"/><line transform="translate(0,26)" x2="0" y2="0" stroke="#888" stroke-width="1" opacity="1"/><line transform="translate(0,22)" x2="0" y2="0" stroke="#888" stroke-width="1" opacity="1"/><line transform="translate(0,18)" x2="0" y2="0" stroke="#888" stroke-width="1" opacity="1"/><line transform="translate(0,15)" x2="0" y2="0" stroke="#888" stroke-width="1" opacity="1"/></g><g class="mark-text role-axis-label" pointer-events="none"><text text-anchor="end" transform="translate(-2,200)" font-family="sans-serif" font-size="0px" fill="#000" opacity="1">30</text><text text-anchor="end" transform="translate(-2,190.8369053987164)" font-family="sans-serif" font-size="0px" fill="#000" opacity="1"/><text text-anchor="end" transform="translate(-2,183.72945705154422)" font-family="sans-serif" font-size="0px" fill="#000" opacity="1"/><text text-anchor="end" transform="translate(-2,177.92224891195352)" font-family="sans-serif" font-size="0px" fill="#000" opacity="1"/><text text-anchor="end" transform="translate(-2,173.01232438981944)" font-family="sans-serif" font-size="0px" fill="#000" opacity="1"/><text text-anchor="end" transform="translate(-2,168.7591543106699)" font-family="sans-serif" font-size="0px" fill="#000" opacity="1"/><text text-anchor="end" transform="translate(-2,165.00759242519058)" font-family="sans-serif" font-size="0px" fill="#000" opacity="1"/><text text-anchor="end" transform="translate(-2,161.6517059634977)" font-family="sans-serif" font-size="0px" fill="#000" opacity="1">100</text><text text-anchor="end" transform="translate(-2,139.57395487545122)" font-family="sans-serif" font-size="0px" fill="#000" opacity="1">200</text><text text-anchor="end" transform="translate(-2,126.6592983886883)" font-family="sans-serif" font-size="0px" fill="#000" opacity="1">300</text><text text-anchor="end" transform="translate(-2,117.49620378740471)" font-family="sans-serif" font-size="0px" fill="#000" opacity="1"/><text text-anchor="end" transform="translate(-2,110.38875544023253)" font-family="sans-serif" font-size="0px" fill="#000" opacity="1"/><text text-anchor="end" transform="translate(-2,104.5815473006418)" font-family="sans-serif" font-size="0px" fill="#000" opacity="1"/><text text-anchor="end" transform="translate(-2,99.67162277850774)" font-family="sans-serif" font-size="0px" fill="#000" opacity="1"/><text text-anchor="end" transform="translate(-2,95.4184526993582)" font-family="sans-serif" font-size="0px" fill="#000" opacity="1"/><text text-anchor="end" transform="translate(-2,91.6668908138789)" font-family="sans-serif" font-size="0px" fill="#000" opacity="1"/><text text-anchor="end" transform="translate(-2,88.31100435218599)" font-family="sans-serif" font-size="0px" fill="#000" opacity="1">1,000</text><text text-anchor="end" transform="translate(-2,66.2332532641395)" font-family="sans-serif" font-size="0px" fill="#000" opacity="1">2,000</text><text text-anchor="end" transform="translate(-2,53.31859677737663)" font-family="sans-serif" font-size="0px" fill="#000" opacity="1">3,000</text><text text-anchor="end" transform="translate(-2,44.15550217609301)" font-family="sans-serif" font-size="0px" fill="#000" opacity="1"/><text text-anchor="end" transform="translate(-2,37.04805382892078)" font-family="sans-serif" font-size="0px" fill="#000" opacity="1"/><text text-anchor="end" transform="translate(-2,31.240845689330122)" font-family="sans-serif" font-size="0px" fill="#000" opacity="1"/><text text-anchor="end" transform="translate(-2,26.330921167196042)" font-family="sans-serif" font-size="0px" fill="#000" opacity="1"/><text text-anchor="end" transform="translate(-2,22.077751088046504)" font-family="sans-serif" font-size="0px" fill="#000" opacity="1"/><text text-anchor="end" transform="translate(-2,18.32618920256719)" font-family="sans-serif" font-size="0px" fill="#000" opacity="1"/><text text-anchor="end" transform="translate(-2,14.970302740874274)" font-family="sans-serif" font-size="0px" fill="#000" opacity="1">10,000</text></g><g class="mark-rule role-axis-domain" pointer-events="none"><line transform="translate(0,200)" x2="0" y2="-200" stroke="#888" stroke-width="1" opacity="1"/></g></g><path class="foreground" aria-hidden="true" d="" pointer-events="none" display="none"/></g></g><g class="mark-group role-title"><g transform="translate(-12,100)"><path class="background" aria-hidden="true" d="M0,0h0v0h0Z" pointer-events="none"/><g><g class="mark-text role-title-text" role="graphics-symbol" aria-roledescription="title" aria-label="Title text 'PennVaccineCohort'" pointer-events="none"><text text-anchor="middle" transform="translate(0,0) rotate(-90)" font-family="sans-serif" font-size="0px" font-weight="bold" fill="#000" opacity="1">PennVaccineCohort</text></g></g><path class="foreground" aria-hidden="true" d="" pointer-events="none" display="none"/></g></g></g><path class="foreground" aria-hidden="true" d="" display="none"/></g></g><g class="mark-group role-column-header concat_1_column_header" role="graphics-object" aria-roledescription="group mark container"><g transform="translate(0,-1)"><path class="background" aria-hidden="true" d="M0,0h180v0h-180Z"/><g><g class="mark-group role-title"><g transform="translate(90,-28)"><path class="background" aria-hidden="true" d="M0,0h0v0h0Z" pointer-events="none"/><g><g class="mark-text role-title-text" role="graphics-symbol" aria-roledescription="title" aria-label="Title text 'egg-passaged'" pointer-events="none"><text text-anchor="middle" transform="translate(0,14)" font-family="sans-serif" font-size="18px" font-weight="bold" fill="#000" opacity="1">egg-passaged</text></g></g><path class="foreground" aria-hidden="true" d="" pointer-events="none" display="none"/></g></g></g><path class="foreground" aria-hidden="true" d="" display="none"/></g></g><g class="mark-group role-column-footer concat_1_column_footer" role="graphics-object" aria-roledescription="group mark container"><g transform="translate(0,201)"><path class="background" aria-hidden="true" d="M0,0h180v0h-180Z"/><g><g class="mark-group role-axis" role="graphics-symbol" aria-roledescription="axis" aria-label="X-axis for a discrete scale with 8 values: A/Texas/50/2012X-223A, A/Switzerland/9715293/2013NIB-88, A/HongKong/4801/2014egg, A/Singapore/INFIMH-16-0019/2016X-307A, A/HongKong/2671/2019, ending with A/Thailand/8/2022"><g transform="translate(0.5,0.5)"><path class="background" aria-hidden="true" d="M0,0h0v0h0Z" pointer-events="none"/><g><g class="mark-rule role-axis-tick" pointer-events="none"><line transform="translate(11,0)" x2="0" y2="5" stroke="#888" stroke-width="1" opacity="1"/><line transform="translate(34,0)" x2="0" y2="5" stroke="#888" stroke-width="1" opacity="1"/><line transform="translate(56,0)" x2="0" y2="5" stroke="#888" stroke-width="1" opacity="1"/><line transform="translate(79,0)" x2="0" y2="5" stroke="#888" stroke-width="1" opacity="1"/><line transform="translate(101,0)" x2="0" y2="5" stroke="#888" stroke-width="1" opacity="1"/><line transform="translate(124,0)" x2="0" y2="5" stroke="#888" stroke-width="1" opacity="1"/><line transform="translate(146,0)" x2="0" y2="5" stroke="#888" stroke-width="1" opacity="1"/><line transform="translate(169,0)" x2="0" y2="5" stroke="#888" stroke-width="1" opacity="1"/></g><g class="mark-text role-axis-label" pointer-events="none"><text text-anchor="end" transform="translate(11.25,7) rotate(270) translate(0,5)" font-family="sans-serif" font-size="18px" font-weight="normal" fill="#000" opacity="1">A/Texas/50/2012X-223A</text><text text-anchor="end" transform="translate(33.75,7) rotate(270) translate(0,5)" font-family="sans-serif" font-size="18px" font-weight="normal" fill="#000" opacity="1">A/Switzerland/9715293/2013NIB-88</text><text text-anchor="end" transform="translate(56.25,7) rotate(270) translate(0,5)" font-family="sans-serif" font-size="18px" font-weight="normal" fill="#000" opacity="1">A/HongKong/4801/2014egg</text><text text-anchor="end" transform="translate(78.75,7) rotate(270) translate(0,5)" font-family="sans-serif" font-size="18px" font-weight="normal" fill="#000" opacity="1">A/Singapore/INFIMH-16-0019/2016X-307A</text><text text-anchor="end" transform="translate(101.25,7) rotate(270) translate(0,5)" font-family="sans-serif" font-size="18px" font-weight="normal" fill="#000" opacity="1">A/HongKong/2671/2019</text><text text-anchor="end" transform="translate(123.75,7) rotate(270) translate(0,5)" font-family="sans-serif" font-size="18px" font-weight="normal" fill="#000" opacity="1">A/Cambodia/e0826360/2020egg</text><text text-anchor="end" transform="translate(146.25,7) rotate(270) translate(0,5)" font-family="sans-serif" font-size="18px" font-weight="bold" fill="#000" opacity="1">A/Darwin/9/2021</text><text text-anchor="end" transform="translate(168.75,7) rotate(270) translate(0,5)" font-family="sans-serif" font-size="18px" font-weight="normal" fill="#000" opacity="1">A/Thailand/8/2022</text></g><g class="mark-rule role-axis-domain" pointer-events="none"><line transform="translate(0,0)" x2="180" y2="0" stroke="#888" stroke-width="1" opacity="1"/></g></g><path class="foreground" aria-hidden="true" d="" pointer-events="none" display="none"/></g></g></g><path class="foreground" aria-hidden="true" d="" display="none"/></g></g><g class="mark-group role-scope concat_1_cell" role="graphics-object" aria-roledescription="group mark container"><g transform="translate(0,0)"><path class="background" aria-hidden="true" d="M0.5,0.5h180v200h-180Z" stroke="#ddd"/><g><g class="mark-group role-scope concat_1_child_layer_0_layer_0_pathgroup" role="graphics-object" aria-roledescription="group mark container"><g transform="translate(0,0)"><path class="background" aria-hidden="true" d="M0,0h180v200h-180Z"/><g><g class="mark-area role-mark concat_1_child_layer_0_layer_0_marks" role="graphics-object" aria-roledescription="area mark container"><path aria-label="virus: A/Texas/50/2012X-223A; titer: 1107.5; upper_titer: 9312.5; timepoint: prevax; Q3 of titer: 9312.5; Q1 of titer: 1107.5; Median of titer: 2602" role="graphics-symbol" aria-roledescription="errorband" d="M11.25,85.059L33.75,134.991L56.25,111.623L78.75,115.196L101.25,122.305L123.75,134.512L146.25,141.494L168.75,156.583L168.75,111.343L146.25,74.168L123.75,55.659L101.25,48.747L78.75,45.097L56.25,30.576L33.75,77.868L11.25,17.239Z" fill="#A499B3" opacity="0.4"/></g></g><path class="foreground" aria-hidden="true" d="" display="none"/></g><g transform="translate(0,0)"><path class="background" aria-hidden="true" d="M0,0h180v200h-180Z"/><g><g class="mark-area role-mark concat_1_child_layer_0_layer_0_marks" role="graphics-object" aria-roledescription="area mark container"><path aria-label="virus: A/Texas/50/2012X-223A; titer: 1381; upper_titer: 11460; timepoint: postvax; Q3 of titer: 11460; Q1 of titer: 1381; Median of titer: 3180" role="graphics-symbol" aria-roledescription="errorband" d="M11.25,78.029L33.75,121.772L56.25,104.56L78.75,104.011L101.25,101.837L123.75,102.937L146.25,86.777L168.75,113.84L168.75,66.561L146.25,32.195L123.75,48.252L101.25,37.711L78.75,23.657L56.25,16.717L33.75,65.377L11.25,10.63Z" fill="#515A47" opacity="0.4"/></g></g><path class="foreground" aria-hidden="true" d="" display="none"/></g></g><g class="mark-symbol role-mark concat_1_child_layer_1_marks" role="graphics-object" aria-roledescription="symbol mark container"><path aria-label="virus: A/Cambodia/e0826360/2020egg; Median of titer: 658.6; timepoint: prevax" role="graphics-symbol" aria-roledescription="point" transform="translate(123.75,101.61341419682677)" d="M6.325,0A6.325,6.325,0,1,1,-6.325,0A6.325,6.325,0,1,1,6.325,0" fill="#A499B3" stroke="black" stroke-width="2.2" opacity="0.9"/><path aria-label="virus: A/Darwin/9/2021; Median of titer: 388.6; timepoint: prevax" role="graphics-symbol" aria-roledescription="point" transform="translate(146.25,118.41715728368314)" d="M6.325,0A6.325,6.325,0,1,1,-6.325,0A6.325,6.325,0,1,1,6.325,0" fill="#A499B3" stroke="black" stroke-width="2.2" opacity="0.9"/><path aria-label="virus: A/HongKong/2671/2019; Median of titer: 1050; timepoint: prevax" role="graphics-symbol" aria-roledescription="point" transform="translate(101.25,86.75696629174483)" d="M6.325,0A6.325,6.325,0,1,1,-6.325,0A6.325,6.325,0,1,1,6.325,0" fill="#A499B3" stroke="black" stroke-width="2.2" opacity="0.9"/><path aria-label="virus: A/HongKong/4801/2014egg; Median of titer: 1326; timepoint: prevax" role="graphics-symbol" aria-roledescription="point" transform="translate(56.25,79.32357631906089)" d="M6.325,0A6.325,6.325,0,1,1,-6.325,0A6.325,6.325,0,1,1,6.325,0" fill="#A499B3" stroke="black" stroke-width="2.2" opacity="0.9"/><path aria-label="virus: A/Singapore/INFIMH-16-0019/2016X-307A; Median of titer: 997.3; timepoint: prevax" role="graphics-symbol" aria-roledescription="point" transform="translate(78.75,88.39711960759007)" d="M6.325,0A6.325,6.325,0,1,1,-6.325,0A6.325,6.325,0,1,1,6.325,0" fill="#A499B3" stroke="black" stroke-width="2.2" opacity="0.9"/><path aria-label="virus: A/Switzerland/9715293/2013NIB-88; Median of titer: 374; timepoint: prevax" role="graphics-symbol" aria-roledescription="point" transform="translate(33.75,119.63690072491822)" d="M6.325,0A6.325,6.325,0,1,1,-6.325,0A6.325,6.325,0,1,1,6.325,0" fill="#A499B3" stroke="black" stroke-width="2.2" opacity="0.9"/><path aria-label="virus: A/Texas/50/2012X-223A; Median of titer: 2602; timepoint: prevax" role="graphics-symbol" aria-roledescription="point" transform="translate(11.25,57.85207615606882)" d="M6.325,0A6.325,6.325,0,1,1,-6.325,0A6.325,6.325,0,1,1,6.325,0" fill="#A499B3" stroke="black" stroke-width="2.2" opacity="0.9"/><path aria-label="virus: A/Thailand/8/2022; Median of titer: 350; timepoint: prevax" role="graphics-symbol" aria-roledescription="point" transform="translate(168.75,121.74937386655425)" d="M6.325,0A6.325,6.325,0,1,1,-6.325,0A6.325,6.325,0,1,1,6.325,0" fill="#A499B3" stroke="black" stroke-width="2.2" opacity="0.9"/><path aria-label="virus: A/Cambodia/e0826360/2020egg; Median of titer: 1790; timepoint: postvax" role="graphics-symbol" aria-roledescription="point" transform="translate(123.75,69.76658565557388)" d="M6.325,0A6.325,6.325,0,1,1,-6.325,0A6.325,6.325,0,1,1,6.325,0" fill="#515A47" stroke="black" stroke-width="2.2" opacity="0.9"/><path aria-label="virus: A/Darwin/9/2021; Median of titer: 3259; timepoint: postvax" role="graphics-symbol" aria-roledescription="point" transform="translate(146.25,50.68103736988119)" d="M6.325,0A6.325,6.325,0,1,1,-6.325,0A6.325,6.325,0,1,1,6.325,0" fill="#515A47" stroke="black" stroke-width="2.2" opacity="0.9"/><path aria-label="virus: A/HongKong/2671/2019; Median of titer: 1778; timepoint: postvax" role="graphics-symbol" aria-roledescription="point" transform="translate(101.25,69.98083396568656)" d="M6.325,0A6.325,6.325,0,1,1,-6.325,0A6.325,6.325,0,1,1,6.325,0" fill="#515A47" stroke="black" stroke-width="2.2" opacity="0.9"/><path aria-label="virus: A/HongKong/4801/2014egg; Median of titer: 2761; timepoint: postvax" role="graphics-symbol" aria-roledescription="point" transform="translate(56.25,55.96288463208234)" d="M6.325,0A6.325,6.325,0,1,1,-6.325,0A6.325,6.325,0,1,1,6.325,0" fill="#515A47" stroke="black" stroke-width="2.2" opacity="0.9"/><path aria-label="virus: A/Singapore/INFIMH-16-0019/2016X-307A; Median of titer: 1509; timepoint: postvax" role="graphics-symbol" aria-roledescription="point" transform="translate(78.75,75.20581013665233)" d="M6.325,0A6.325,6.325,0,1,1,-6.325,0A6.325,6.325,0,1,1,6.325,0" fill="#515A47" stroke="black" stroke-width="2.2" opacity="0.9"/><path aria-label="virus: A/Switzerland/9715293/2013NIB-88; Median of titer: 806.3; timepoint: postvax" role="graphics-symbol" aria-roledescription="point" transform="translate(33.75,95.16860492550263)" d="M6.325,0A6.325,6.325,0,1,1,-6.325,0A6.325,6.325,0,1,1,6.325,0" fill="#515A47" stroke="black" stroke-width="2.2" opacity="0.9"/><path aria-label="virus: A/Texas/50/2012X-223A; Median of titer: 3180; timepoint: postvax" role="graphics-symbol" aria-roledescription="point" transform="translate(11.25,51.46264686397706)" d="M6.325,0A6.325,6.325,0,1,1,-6.325,0A6.325,6.325,0,1,1,6.325,0" fill="#515A47" stroke="black" stroke-width="2.2" opacity="0.9"/><path aria-label="virus: A/Thailand/8/2022; Median of titer: 918.6; timepoint: postvax" role="graphics-symbol" aria-roledescription="point" transform="translate(168.75,91.01533703414518)" d="M6.325,0A6.325,6.325,0,1,1,-6.325,0A6.325,6.325,0,1,1,6.325,0" fill="#515A47" stroke="black" stroke-width="2.2" opacity="0.9"/></g></g><path class="foreground" aria-hidden="true" d="" display="none"/></g></g></g><path class="foreground" aria-hidden="true" d="" display="none"/></g></g></g><path class="foreground" aria-hidden="true" d="" display="none"/></g></g></g></svg>