<svg xmlns="http://www.w3.org/2000/svg" xmlns:xlink="http://www.w3.org/1999/xlink" version="1.1" class="marks" width="1201" height="534" viewBox="0 0 1201 534"><rect width="1201" height="534" fill="white"/><g fill="none" stroke-miterlimit="10" transform="translate(94,5)"><g class="mark-group role-frame root" role="graphics-object" aria-roledescription="group mark container"><g transform="translate(0,0)"><path class="background" aria-hidden="true" d="M0.5,0.5h1100v180h-1100Z" stroke="#ddd"/><g><g class="mark-group role-axis" role="graphics-symbol" aria-roledescription="axis" aria-label="X-axis for a discrete scale with 62 values: A/TECPAN/017FLU/2023, A/South_Africa/R06506/2023, A/South_Africa/R07073/2023, A/South_Africa/R05384/2023, A/Surat_Thani/P152/2023, ending with A/SouthAfrica/PET28931/2023"><g transform="translate(0.5,180.5)"><path class="background" aria-hidden="true" d="M0,0h0v0h0Z" pointer-events="none"/><g><g class="mark-rule role-axis-tick" pointer-events="none"><line transform="translate(9,0)" x2="0" y2="5" stroke="#888" stroke-width="1" opacity="1"/><line transform="translate(27,0)" x2="0" y2="5" stroke="#888" stroke-width="1" opacity="1"/><line transform="translate(44,0)" x2="0" y2="5" stroke="#888" stroke-width="1" opacity="1"/><line transform="translate(62,0)" x2="0" y2="5" stroke="#888" stroke-width="1" opacity="1"/><line transform="translate(80,0)" x2="0" y2="5" stroke="#888" stroke-width="1" opacity="1"/><line transform="translate(98,0)" x2="0" y2="5" stroke="#888" stroke-width="1" opacity="1"/><line transform="translate(115,0)" x2="0" y2="5" stroke="#888" stroke-width="1" opacity="1"/><line transform="translate(133,0)" x2="0" y2="5" stroke="#888" stroke-width="1" opacity="1"/><line transform="translate(151,0)" x2="0" y2="5" stroke="#888" stroke-width="1" opacity="1"/><line transform="translate(169,0)" x2="0" y2="5" stroke="#888" stroke-width="1" opacity="1"/><line transform="translate(186,0)" x2="0" y2="5" stroke="#888" stroke-width="1" opacity="1"/><line transform="translate(204,0)" x2="0" y2="5" stroke="#888" stroke-width="1" opacity="1"/><line transform="translate(222,0)" x2="0" y2="5" stroke="#888" stroke-width="1" opacity="1"/><line transform="translate(240,0)" x2="0" y2="5" stroke="#888" stroke-width="1" opacity="1"/><line transform="translate(257,0)" x2="0" y2="5" stroke="#888" stroke-width="1" opacity="1"/><line transform="translate(275,0)" x2="0" y2="5" stroke="#888" stroke-width="1" opacity="1"/><line transform="translate(293,0)" x2="0" y2="5" stroke="#888" stroke-width="1" opacity="1"/><line transform="translate(310,0)" x2="0" y2="5" stroke="#888" stroke-width="1" opacity="1"/><line transform="translate(328,0)" x2="0" y2="5" stroke="#888" stroke-width="1" opacity="1"/><line transform="translate(346,0)" x2="0" y2="5" stroke="#888" stroke-width="1" opacity="1"/><line transform="translate(364,0)" x2="0" y2="5" stroke="#888" stroke-width="1" opacity="1"/><line transform="translate(381,0)" x2="0" y2="5" stroke="#888" stroke-width="1" opacity="1"/><line transform="translate(399,0)" x2="0" y2="5" stroke="#888" stroke-width="1" opacity="1"/><line transform="translate(417,0)" x2="0" y2="5" stroke="#888" stroke-width="1" opacity="1"/><line transform="translate(435,0)" x2="0" y2="5" stroke="#888" stroke-width="1" opacity="1"/><line transform="translate(452,0)" x2="0" y2="5" stroke="#888" stroke-width="1" opacity="1"/><line transform="translate(470,0)" x2="0" y2="5" stroke="#888" stroke-width="1" opacity="1"/><line transform="translate(488,0)" x2="0" y2="5" stroke="#888" stroke-width="1" opacity="1"/><line transform="translate(506,0)" x2="0" y2="5" stroke="#888" stroke-width="1" opacity="1"/><line transform="translate(523,0)" x2="0" y2="5" stroke="#888" stroke-width="1" opacity="1"/><line transform="translate(541,0)" x2="0" y2="5" stroke="#888" stroke-width="1" opacity="1"/><line transform="translate(559,0)" x2="0" y2="5" stroke="#888" stroke-width="1" opacity="1"/><line transform="translate(577,0)" x2="0" y2="5" stroke="#888" stroke-width="1" opacity="1"/><line transform="translate(594,0)" x2="0" y2="5" stroke="#888" stroke-width="1" opacity="1"/><line transform="translate(612,0)" x2="0" y2="5" stroke="#888" stroke-width="1" opacity="1"/><line transform="translate(630,0)" x2="0" y2="5" stroke="#888" stroke-width="1" opacity="1"/><line transform="translate(648,0)" x2="0" y2="5" stroke="#888" stroke-width="1" opacity="1"/><line transform="translate(665,0)" x2="0" y2="5" stroke="#888" stroke-width="1" opacity="1"/><line transform="translate(683,0)" x2="0" y2="5" stroke="#888" stroke-width="1" opacity="1"/><line transform="translate(701,0)" x2="0" y2="5" stroke="#888" stroke-width="1" opacity="1"/><line transform="translate(719,0)" x2="0" y2="5" stroke="#888" stroke-width="1" opacity="1"/><line transform="translate(736,0)" x2="0" y2="5" stroke="#888" stroke-width="1" opacity="1"/><line transform="translate(754,0)" x2="0" y2="5" stroke="#888" stroke-width="1" opacity="1"/><line transform="translate(772,0)" x2="0" y2="5" stroke="#888" stroke-width="1" opacity="1"/><line transform="translate(790,0)" x2="0" y2="5" stroke="#888" stroke-width="1" opacity="1"/><line transform="translate(807,0)" x2="0" y2="5" stroke="#888" stroke-width="1" opacity="1"/><line transform="translate(825,0)" x2="0" y2="5" stroke="#888" stroke-width="1" opacity="1"/><line transform="translate(843,0)" x2="0" y2="5" stroke="#888" stroke-width="1" opacity="1"/><line transform="translate(860,0)" x2="0" y2="5" stroke="#888" stroke-width="1" opacity="1"/><line transform="translate(878,0)" x2="0" y2="5" stroke="#888" stroke-width="1" opacity="1"/><line transform="translate(896,0)" x2="0" y2="5" stroke="#888" stroke-width="1" opacity="1"/><line transform="translate(914,0)" x2="0" y2="5" stroke="#888" stroke-width="1" opacity="1"/><line transform="translate(931,0)" x2="0" y2="5" stroke="#888" stroke-width="1" opacity="1"/><line transform="translate(949,0)" x2="0" y2="5" stroke="#888" stroke-width="1" opacity="1"/><line transform="translate(967,0)" x2="0" y2="5" stroke="#888" stroke-width="1" opacity="1"/><line transform="translate(985,0)" x2="0" y2="5" stroke="#888" stroke-width="1" opacity="1"/><line transform="translate(1002,0)" x2="0" y2="5" stroke="#888" stroke-width="1" opacity="1"/><line transform="translate(1020,0)" x2="0" y2="5" stroke="#888" stroke-width="1" opacity="1"/><line transform="translate(1038,0)" x2="0" y2="5" stroke="#888" stroke-width="1" opacity="1"/><line transform="translate(1056,0)" x2="0" y2="5" stroke="#888" stroke-width="1" opacity="1"/><line transform="translate(1073,0)" x2="0" y2="5" stroke="#888" stroke-width="1" opacity="1"/><line transform="translate(1091,0)" x2="0" y2="5" stroke="#888" stroke-width="1" opacity="1"/></g><g class="mark-text role-axis-label" pointer-events="none"><text text-anchor="end" transform="translate(8.870967741935488,7) rotate(270) translate(0,6)" font-family="sans-serif" font-size="19px" fill="#000" opacity="1">A/TECPAN/017FLU/2023</text><text text-anchor="end" transform="translate(26.612903225806456,7) rotate(270) translate(0,6)" font-family="sans-serif" font-size="19px" fill="#000" opacity="1">A/South_Africa/R06506/2023</text><text text-anchor="end" transform="translate(44.35483870967742,7) rotate(270) translate(0,6)" font-family="sans-serif" font-size="19px" fill="#000" opacity="1">A/South_Africa/R07073/2023</text><text text-anchor="end" transform="translate(62.09677419354839,7) rotate(270) translate(0,6)" font-family="sans-serif" font-size="19px" fill="#000" opacity="1">A/South_Africa/R05384/2023</text><text text-anchor="end" transform="translate(79.83870967741936,7) rotate(270) translate(0,6)" font-family="sans-serif" font-size="19px" fill="#000" opacity="1">A/Surat_Thani/P152/2023</text><text text-anchor="end" transform="translate(97.58064516129033,7) rotate(270) translate(0,6)" font-family="sans-serif" font-size="19px" fill="#000" opacity="1">A/South_Dakota/22/2023</text><text text-anchor="end" transform="translate(115.3225806451613,7) rotate(270) translate(0,6)" font-family="sans-serif" font-size="19px" fill="#000" opacity="1">A/Jeju/1047/2023</text><text text-anchor="end" transform="translate(133.06451612903226,7) rotate(270) translate(0,6)" font-family="sans-serif" font-size="19px" fill="#000" opacity="1">A/EHIME/50/2023</text><text text-anchor="end" transform="translate(150.80645161290323,7) rotate(270) translate(0,6)" font-family="sans-serif" font-size="19px" fill="#000" opacity="1">A/Schleswig-Holstein/4/2023</text><text text-anchor="end" transform="translate(168.5483870967742,7) rotate(270) translate(0,6)" font-family="sans-serif" font-size="19px" fill="#000" opacity="1">A/Romania/543634/2022</text><text text-anchor="end" transform="translate(186.29032258064518,7) rotate(270) translate(0,6)" font-family="sans-serif" font-size="19px" fill="#000" opacity="1">A/YAMAGATA/98/2023</text><text text-anchor="end" transform="translate(204.03225806451613,7) rotate(270) translate(0,6)" font-family="sans-serif" font-size="19px" fill="#000" opacity="1">A/Luga/RII-11393S/2023</text><text text-anchor="end" transform="translate(221.7741935483871,7) rotate(270) translate(0,6)" font-family="sans-serif" font-size="19px" fill="#000" opacity="1">A/SENDAI/45/2023</text><text text-anchor="end" transform="translate(239.51612903225808,7) rotate(270) translate(0,6)" font-family="sans-serif" font-size="19px" fill="#000" opacity="1">A/Busan/1301/2023</text><text text-anchor="end" transform="translate(257.258064516129,7) rotate(270) translate(0,6)" font-family="sans-serif" font-size="19px" fill="#000" opacity="1">A/KANAGAWA/IC2239/2023</text><text text-anchor="end" transform="translate(275,7) rotate(270) translate(0,6)" font-family="sans-serif" font-size="19px" fill="#000" opacity="1">A/KANAGAWA/AC2316/2023</text><text text-anchor="end" transform="translate(292.741935483871,7) rotate(270) translate(0,6)" font-family="sans-serif" font-size="19px" fill="#000" opacity="1">A/Brisbane/429/2023</text><text text-anchor="end" transform="translate(310.48387096774195,7) rotate(270) translate(0,6)" font-family="sans-serif" font-size="19px" fill="#000" opacity="1">A/Finland/391/2023</text><text text-anchor="end" transform="translate(328.2258064516129,7) rotate(270) translate(0,6)" font-family="sans-serif" font-size="19px" fill="#000" opacity="1">A/South_Africa/R06359/2023</text><text text-anchor="end" transform="translate(345.9677419354839,7) rotate(270) translate(0,6)" font-family="sans-serif" font-size="19px" fill="#000" opacity="1">A/Bhutan/FLU-BTG-00988/2022</text><text text-anchor="end" transform="translate(363.7096774193549,7) rotate(270) translate(0,6)" font-family="sans-serif" font-size="19px" fill="#000" opacity="1">A/Catalonia/2041146NS/2023</text><text text-anchor="end" transform="translate(381.4516129032258,7) rotate(270) translate(0,6)" font-family="sans-serif" font-size="19px" fill="#000" opacity="1">A/Bhutan/0006/2023</text><text text-anchor="end" transform="translate(399.19354838709677,7) rotate(270) translate(0,6)" font-family="sans-serif" font-size="19px" fill="#000" opacity="1">A/SouthSudan/631/2023</text><text text-anchor="end" transform="translate(416.93548387096774,7) rotate(270) translate(0,6)" font-family="sans-serif" font-size="19px" fill="#000" opacity="1">A/SouthSudan/642/2023</text><text text-anchor="end" transform="translate(434.6774193548387,7) rotate(270) translate(0,6)" font-family="sans-serif" font-size="19px" fill="#000" opacity="1">A/Finland/399/2023</text><text text-anchor="end" transform="translate(452.4193548387097,7) rotate(270) translate(0,6)" font-family="sans-serif" font-size="19px" fill="#000" opacity="1">A/Netherlands/01685/2023</text><text text-anchor="end" transform="translate(470.16129032258067,7) rotate(270) translate(0,6)" font-family="sans-serif" font-size="19px" fill="#000" opacity="1">A/Netherlands/01760/2023</text><text text-anchor="end" transform="translate(487.90322580645164,7) rotate(270) translate(0,6)" font-family="sans-serif" font-size="19px" fill="#000" opacity="1">A/Bhutan/0845/2023</text><text text-anchor="end" transform="translate(505.64516129032256,7) rotate(270) translate(0,6)" font-family="sans-serif" font-size="19px" fill="#000" opacity="1">A/Saint-Petersburg/RII-MH144113/2023</text><text text-anchor="end" transform="translate(523.3870967741935,7) rotate(270) translate(0,6)" font-family="sans-serif" font-size="19px" fill="#000" opacity="1">A/Solwezi/13-NIC-001/2023</text><text text-anchor="end" transform="translate(541.1290322580645,7) rotate(270) translate(0,6)" font-family="sans-serif" font-size="19px" fill="#000" opacity="1">A/Sydney/332/2023</text><text text-anchor="end" transform="translate(558.8709677419355,7) rotate(270) translate(0,6)" font-family="sans-serif" font-size="19px" fill="#000" opacity="1">A/Bangkok/P3755/2023</text><text text-anchor="end" transform="translate(576.6129032258065,7) rotate(270) translate(0,6)" font-family="sans-serif" font-size="19px" fill="#000" opacity="1">A/Netherlands/01693/2023</text><text text-anchor="end" transform="translate(594.3548387096774,7) rotate(270) translate(0,6)" font-family="sans-serif" font-size="19px" fill="#000" opacity="1">A/Ontario/RV00796/2023</text><text text-anchor="end" transform="translate(612.0967741935484,7) rotate(270) translate(0,6)" font-family="sans-serif" font-size="19px" fill="#000" opacity="1">A/Samut_Songkhram/THIS061/2023</text><text text-anchor="end" transform="translate(629.8387096774194,7) rotate(270) translate(0,6)" font-family="sans-serif" font-size="19px" fill="#000" opacity="1">A/Bangkok/P3599/2023</text><text text-anchor="end" transform="translate(647.5806451612904,7) rotate(270) translate(0,6)" font-family="sans-serif" font-size="19px" fill="#000" opacity="1">A/Massachusetts/18/2022</text><text text-anchor="end" transform="translate(665.3225806451613,7) rotate(270) translate(0,6)" font-family="sans-serif" font-size="19px" fill="#000" opacity="1">A/Saskatchewan/SKFLU317847/2023</text><text text-anchor="end" transform="translate(683.0645161290323,7) rotate(270) translate(0,6)" font-family="sans-serif" font-size="19px" fill="#000" opacity="1">A/Sydney/710/2023</text><text text-anchor="end" transform="translate(700.8064516129033,7) rotate(270) translate(0,6)" font-family="sans-serif" font-size="19px" fill="#000" opacity="1">A/Krabi/THIS050/2023</text><text text-anchor="end" transform="translate(718.5483870967743,7) rotate(270) translate(0,6)" font-family="sans-serif" font-size="19px" fill="#000" opacity="1">A/Georgia/40/2023</text><text text-anchor="end" transform="translate(736.2903225806451,7) rotate(270) translate(0,6)" font-family="sans-serif" font-size="19px" fill="#000" opacity="1">A/Sydney/715/2023</text><text text-anchor="end" transform="translate(754.0322580645161,7) rotate(270) translate(0,6)" font-family="sans-serif" font-size="19px" fill="#000" opacity="1">A/Guangdong-Futian/1980/2023</text><text text-anchor="end" transform="translate(771.7741935483871,7) rotate(270) translate(0,6)" font-family="sans-serif" font-size="19px" fill="#000" opacity="1">A/Townsville/68/2023</text><text text-anchor="end" transform="translate(789.516129032258,7) rotate(270) translate(0,6)" font-family="sans-serif" font-size="19px" fill="#000" opacity="1">A/Maldives/852/2023</text><text text-anchor="end" transform="translate(807.258064516129,7) rotate(270) translate(0,6)" font-family="sans-serif" font-size="19px" fill="#000" opacity="1">A/Wisconsin/27/2023</text><text text-anchor="end" transform="translate(825,7) rotate(270) translate(0,6)" font-family="sans-serif" font-size="19px" fill="#000" opacity="1">A/Malaysia/IMR-SARI1989/2023</text><text text-anchor="end" transform="translate(842.741935483871,7) rotate(270) translate(0,6)" font-family="sans-serif" font-size="19px" fill="#000" opacity="1">A/Chipata/15-NIC-001/2023</text><text text-anchor="end" transform="translate(860.483870967742,7) rotate(270) translate(0,6)" font-family="sans-serif" font-size="19px" fill="#000" opacity="1">A/California/81/2023</text><text text-anchor="end" transform="translate(878.2258064516129,7) rotate(270) translate(0,6)" font-family="sans-serif" font-size="19px" fill="#000" opacity="1">A/Abu_Dhabi/6753/2023</text><text text-anchor="end" transform="translate(895.9677419354839,7) rotate(270) translate(0,6)" font-family="sans-serif" font-size="19px" fill="#000" opacity="1">A/Sydney/749/2023</text><text text-anchor="end" transform="translate(913.7096774193549,7) rotate(270) translate(0,6)" font-family="sans-serif" font-size="19px" fill="#000" opacity="1">A/Victoria/1033/2023</text><text text-anchor="end" transform="translate(931.4516129032259,7) rotate(270) translate(0,6)" font-family="sans-serif" font-size="19px" fill="#000" opacity="1">A/Oman/3011/2023</text><text text-anchor="end" transform="translate(949.1935483870968,7) rotate(270) translate(0,6)" font-family="sans-serif" font-size="19px" fill="#000" opacity="1">A/Catalonia/NSVH102124476/2023</text><text text-anchor="end" transform="translate(966.9354838709678,7) rotate(270) translate(0,6)" font-family="sans-serif" font-size="19px" fill="#000" opacity="1">A/South_Africa/R05510/2023</text><text text-anchor="end" transform="translate(984.6774193548388,7) rotate(270) translate(0,6)" font-family="sans-serif" font-size="19px" fill="#000" opacity="1">A/South_Africa/K056872/2023</text><text text-anchor="end" transform="translate(1002.4193548387096,7) rotate(270) translate(0,6)" font-family="sans-serif" font-size="19px" fill="#000" opacity="1">A/South_Africa/R06240/2023</text><text text-anchor="end" transform="translate(1020.1612903225806,7) rotate(270) translate(0,6)" font-family="sans-serif" font-size="19px" fill="#000" opacity="1">A/South_Africa/KO56863/2023</text><text text-anchor="end" transform="translate(1037.9032258064517,7) rotate(270) translate(0,6)" font-family="sans-serif" font-size="19px" fill="#000" opacity="1">A/South_Africa/R06477/2023</text><text text-anchor="end" transform="translate(1055.6451612903224,7) rotate(270) translate(0,6)" font-family="sans-serif" font-size="19px" fill="#000" opacity="1">A/South_Africa/R07188/2023</text><text text-anchor="end" transform="translate(1073.3870967741937,7) rotate(270) translate(0,6)" font-family="sans-serif" font-size="19px" fill="#000" opacity="1">A/SOUTH_AFRICA/R07876/202023</text><text text-anchor="end" transform="translate(1091.1290322580644,7) rotate(270) translate(0,6)" font-family="sans-serif" font-size="19px" fill="#000" opacity="1">A/SouthAfrica/PET28931/2023</text></g><g class="mark-rule role-axis-domain" pointer-events="none"><line transform="translate(0,0)" x2="1100" y2="0" stroke="#888" stroke-width="1" opacity="1"/></g></g><path class="foreground" aria-hidden="true" d="" pointer-events="none" display="none"/></g></g><g class="mark-group role-axis" role="graphics-symbol" aria-roledescription="axis" aria-label="Y-axis titled 'NT50' for a log scale with values from 100 to 16,000"><g transform="translate(0.5,0.5)"><path class="background" aria-hidden="true" d="M0,0h0v0h0Z" pointer-events="none"/><g><g class="mark-rule role-axis-tick" pointer-events="none"><line transform="translate(0,180)" x2="-5" y2="0" stroke="#888" stroke-width="1" opacity="1"/><line transform="translate(0,155)" x2="-5" y2="0" stroke="#888" stroke-width="1" opacity="1"/><line transform="translate(0,141)" x2="-5" y2="0" stroke="#888" stroke-width="1" opacity="1"/><line transform="translate(0,131)" x2="-5" y2="0" stroke="#888" stroke-width="1" opacity="1"/><line transform="translate(0,123)" x2="-5" y2="0" stroke="#888" stroke-width="1" opacity="1"/><line transform="translate(0,116)" x2="-5" y2="0" stroke="#888" stroke-width="1" opacity="1"/><line transform="translate(0,111)" x2="-5" y2="0" stroke="#888" stroke-width="1" opacity="1"/><line transform="translate(0,106)" x2="-5" y2="0" stroke="#888" stroke-width="1" opacity="1"/><line transform="translate(0,102)" x2="-5" y2="0" stroke="#888" stroke-width="1" opacity="1"/><line transform="translate(0,98)" x2="-5" y2="0" stroke="#888" stroke-width="1" opacity="1"/><line transform="translate(0,74)" x2="-5" y2="0" stroke="#888" stroke-width="1" opacity="1"/><line transform="translate(0,59)" x2="-5" y2="0" stroke="#888" stroke-width="1" opacity="1"/><line transform="translate(0,49)" x2="-5" y2="0" stroke="#888" stroke-width="1" opacity="1"/><line transform="translate(0,41)" x2="-5" y2="0" stroke="#888" stroke-width="1" opacity="1"/><line transform="translate(0,35)" x2="-5" y2="0" stroke="#888" stroke-width="1" opacity="1"/><line transform="translate(0,29)" x2="-5" y2="0" stroke="#888" stroke-width="1" opacity="1"/><line transform="translate(0,25)" x2="-5" y2="0" stroke="#888" stroke-width="1" opacity="1"/><line transform="translate(0,20)" x2="-5" y2="0" stroke="#888" stroke-width="1" opacity="1"/><line transform="translate(0,17)" x2="-5" y2="0" stroke="#888" stroke-width="1" opacity="1"/></g><g class="mark-text role-axis-label" pointer-events="none"><text text-anchor="end" transform="translate(-7,186)" font-family="sans-serif" font-size="19px" fill="#000" opacity="1">100</text><text text-anchor="end" transform="translate(-7,161.41631143227323)" font-family="sans-serif" font-size="19px" fill="#000" opacity="1">200</text><text text-anchor="end" transform="translate(-7,147.03577549074566)" font-family="sans-serif" font-size="19px" fill="#000" opacity="0">300</text><text text-anchor="end" transform="translate(-7,136.83262286454647)" font-family="sans-serif" font-size="19px" fill="#000" opacity="1">400</text><text text-anchor="end" transform="translate(-7,128.91844283863395)" font-family="sans-serif" font-size="19px" fill="#000" opacity="0">500</text><text text-anchor="end" transform="translate(-7,122.4520869230189)" font-family="sans-serif" font-size="19px" fill="#000" opacity="1"/><text text-anchor="end" transform="translate(-7,116.98486089706098)" font-family="sans-serif" font-size="19px" fill="#000" opacity="1"/><text text-anchor="end" transform="translate(-7,112.24893429681968)" font-family="sans-serif" font-size="19px" fill="#000" opacity="1"/><text text-anchor="end" transform="translate(-7,108.07155098149133)" font-family="sans-serif" font-size="19px" fill="#000" opacity="1"/><text text-anchor="end" transform="translate(-7,104.33475427090715)" font-family="sans-serif" font-size="19px" fill="#000" opacity="1">1,000</text><text text-anchor="end" transform="translate(-7,79.75106570318036)" font-family="sans-serif" font-size="19px" fill="#000" opacity="1">2,000</text><text text-anchor="end" transform="translate(-7,65.37052976165282)" font-family="sans-serif" font-size="19px" fill="#000" opacity="0">3,000</text><text text-anchor="end" transform="translate(-7,55.16737713545357)" font-family="sans-serif" font-size="19px" fill="#000" opacity="1">4,000</text><text text-anchor="end" transform="translate(-7,47.25319710954104)" font-family="sans-serif" font-size="19px" fill="#000" opacity="0">5,000</text><text text-anchor="end" transform="translate(-7,40.78684119392605)" font-family="sans-serif" font-size="19px" fill="#000" opacity="1"/><text text-anchor="end" transform="translate(-7,35.31961516796811)" font-family="sans-serif" font-size="19px" fill="#000" opacity="1"/><text text-anchor="end" transform="translate(-7,30.583688567726792)" font-family="sans-serif" font-size="19px" fill="#000" opacity="1"/><text text-anchor="end" transform="translate(-7,26.40630525239845)" font-family="sans-serif" font-size="19px" fill="#000" opacity="1"/><text text-anchor="end" transform="translate(-7,22.66950854181425)" font-family="sans-serif" font-size="19px" fill="#000" opacity="1">10,000</text></g><g class="mark-rule role-axis-domain" pointer-events="none"><line transform="translate(0,180)" x2="0" y2="-180" stroke="#888" stroke-width="1" opacity="1"/></g><g class="mark-text role-axis-title" pointer-events="none"><text text-anchor="middle" transform="translate(-69.11328125,90) rotate(-90) translate(0,-4)" font-family="sans-serif" font-size="19px" font-weight="bold" fill="#000" opacity="1">NT50</text></g></g><path class="foreground" aria-hidden="true" d="" pointer-events="none" display="none"/></g></g><g class="mark-group role-scope layer_0_pathgroup" role="graphics-object" aria-roledescription="group mark container"><g transform="translate(0,0)"><path class="background" aria-hidden="true" d="M0,0h1100v180h-1100Z"/><g><g class="mark-line role-mark layer_0_marks" role="graphics-object" aria-roledescription="line mark container"><path aria-label="virus: A/TECPAN/017FLU/2023; titer: 6516; serum: 15 yo female" role="graphics-symbol" aria-roledescription="line mark" d="M8.871,31.861L26.613,35.479L44.355,29.564L62.097,31.102L79.839,22.601L97.581,27.397L115.323,20.62L133.065,24.402L150.806,26.632L168.548,16.876L186.29,31.482L204.032,35.77L221.774,31.768L239.516,11.929L257.258,81.006L275,71.634L292.742,83.789L310.484,71.022L328.226,84.671L345.968,36.044L363.71,51.722L381.452,10.44L399.194,14.403L416.935,11.01L434.677,10.92L452.419,72.565L470.161,62.846L487.903,78.956L505.645,76.902L523.387,56.412L541.129,58.299L558.871,80.682L576.613,58.173L594.355,58.002L612.097,78.184L629.839,82.746L647.581,74.197L665.323,141.356L683.065,149.501L700.806,144.16L718.548,83.789L736.29,70.662L754.032,71.903L771.774,66.888L789.516,74.413L807.258,80.21L825,74.522L842.742,58.971L860.484,68.656L878.226,61.028L895.968,76.401L913.71,77.864L931.452,64.583L949.194,84.526L966.935,59.147L984.677,76.844L1002.419,70.662L1020.161,71.518L1037.903,78.772L1055.645,82.518L1073.387,70.034L1091.129,70.549" stroke="#345995" stroke-width="5"/></g></g><path class="foreground" aria-hidden="true" d="" display="none"/></g></g><g class="mark-symbol role-mark layer_1_marks" role="graphics-object" aria-roledescription="symbol mark container"><path aria-label="virus: A/Abu_Dhabi/6753/2023; titer: 2863; serum: 15 yo female" role="graphics-symbol" aria-roledescription="point" transform="translate(878.2258064516129,61.02832663042785)" d="M5.477,0A5.477,5.477,0,1,1,-5.477,0A5.477,5.477,0,1,1,5.477,0" fill="#345995" stroke="black" stroke-width="2" opacity="0.7"/><path aria-label="virus: A/Bangkok/P3599/2023; titer: 1552; serum: 15 yo female" role="graphics-symbol" aria-roledescription="point" transform="translate(629.8387096774194,82.7455353008097)" d="M5.477,0A5.477,5.477,0,1,1,-5.477,0A5.477,5.477,0,1,1,5.477,0" fill="#345995" stroke="black" stroke-width="2" opacity="0.7"/><path aria-label="virus: A/Bangkok/P3755/2023; titer: 1645; serum: 15 yo female" role="graphics-symbol" aria-roledescription="point" transform="translate(558.8709677419355,80.68151274247045)" d="M5.477,0A5.477,5.477,0,1,1,-5.477,0A5.477,5.477,0,1,1,5.477,0" fill="#345995" stroke="black" stroke-width="2" opacity="0.7"/><path aria-label="virus: A/Bhutan/0006/2023; titer: 11920; serum: 15 yo female" role="graphics-symbol" aria-roledescription="point" transform="translate(381.4516129032258,10.440389400933768)" d="M5.477,0A5.477,5.477,0,1,1,-5.477,0A5.477,5.477,0,1,1,5.477,0" fill="#345995" stroke="black" stroke-width="2" opacity="0.7"/><path aria-label="virus: A/Bhutan/0845/2023; titer: 1727; serum: 15 yo female" role="graphics-symbol" aria-roledescription="point" transform="translate(487.90322580645164,78.95621721382977)" d="M5.477,0A5.477,5.477,0,1,1,-5.477,0A5.477,5.477,0,1,1,5.477,0" fill="#345995" stroke="black" stroke-width="2" opacity="0.7"/><path aria-label="virus: A/Bhutan/FLU-BTG-00988/2022; titer: 5791; serum: 15 yo female" role="graphics-symbol" aria-roledescription="point" transform="translate(345.9677419354839,36.044296959881585)" d="M5.477,0A5.477,5.477,0,1,1,-5.477,0A5.477,5.477,0,1,1,5.477,0" fill="#345995" stroke="black" stroke-width="2" opacity="0.7"/><path aria-label="virus: A/Brisbane/429/2023; titer: 1507; serum: 15 yo female" role="graphics-symbol" aria-roledescription="point" transform="translate(292.741935483871,83.78909175302482)" d="M5.477,0A5.477,5.477,0,1,1,-5.477,0A5.477,5.477,0,1,1,5.477,0" fill="#345995" stroke="black" stroke-width="2" opacity="0.7"/><path aria-label="virus: A/Busan/1301/2023; titer: 11430; serum: 15 yo female" role="graphics-symbol" aria-roledescription="point" transform="translate(239.51612903225808,11.92914887293605)" d="M5.477,0A5.477,5.477,0,1,1,-5.477,0A5.477,5.477,0,1,1,5.477,0" fill="#345995" stroke="black" stroke-width="2" opacity="0.7"/><path aria-label="virus: A/California/81/2023; titer: 2309; serum: 15 yo female" role="graphics-symbol" aria-roledescription="point" transform="translate(860.483870967742,68.65564948539256)" d="M5.477,0A5.477,5.477,0,1,1,-5.477,0A5.477,5.477,0,1,1,5.477,0" fill="#345995" stroke="black" stroke-width="2" opacity="0.7"/><path aria-label="virus: A/Catalonia/2041146NS/2023; titer: 3722; serum: 15 yo female" role="graphics-symbol" aria-roledescription="point" transform="translate(363.7096774193549,51.72216185692469)" d="M5.477,0A5.477,5.477,0,1,1,-5.477,0A5.477,5.477,0,1,1,5.477,0" fill="#345995" stroke="black" stroke-width="2" opacity="0.7"/><path aria-label="virus: A/Catalonia/NSVH102124476/2023; titer: 1476; serum: 15 yo female" role="graphics-symbol" aria-roledescription="point" transform="translate(949.1935483870968,84.52627533729219)" d="M5.477,0A5.477,5.477,0,1,1,-5.477,0A5.477,5.477,0,1,1,5.477,0" fill="#345995" stroke="black" stroke-width="2" opacity="0.7"/><path aria-label="virus: A/Chipata/15-NIC-001/2023; titer: 3034; serum: 15 yo female" role="graphics-symbol" aria-roledescription="point" transform="translate(842.741935483871,58.97083377480941)" d="M5.477,0A5.477,5.477,0,1,1,-5.477,0A5.477,5.477,0,1,1,5.477,0" fill="#345995" stroke="black" stroke-width="2" opacity="0.7"/><path aria-label="virus: A/EHIME/50/2023; titer: 8041; serum: 15 yo female" role="graphics-symbol" aria-roledescription="point" transform="translate(133.06451612903226,24.402385587176678)" d="M5.477,0A5.477,5.477,0,1,1,-5.477,0A5.477,5.477,0,1,1,5.477,0" fill="#345995" stroke="black" stroke-width="2" opacity="0.7"/><path aria-label="virus: A/Finland/391/2023; titer: 2160; serum: 15 yo female" role="graphics-symbol" aria-roledescription="point" transform="translate(310.48387096774195,71.0215064981495)" d="M5.477,0A5.477,5.477,0,1,1,-5.477,0A5.477,5.477,0,1,1,5.477,0" fill="#345995" stroke="black" stroke-width="2" opacity="0.7"/><path aria-label="virus: A/Finland/399/2023; titer: 11760; serum: 15 yo female" role="graphics-symbol" aria-roledescription="point" transform="translate(434.6774193548387,10.91967731078013)" d="M5.477,0A5.477,5.477,0,1,1,-5.477,0A5.477,5.477,0,1,1,5.477,0" fill="#345995" stroke="black" stroke-width="2" opacity="0.7"/><path aria-label="virus: A/Georgia/40/2023; titer: 1507; serum: 15 yo female" role="graphics-symbol" aria-roledescription="point" transform="translate(718.5483870967743,83.78909175302482)" d="M5.477,0A5.477,5.477,0,1,1,-5.477,0A5.477,5.477,0,1,1,5.477,0" fill="#345995" stroke="black" stroke-width="2" opacity="0.7"/><path aria-label="virus: A/Guangdong-Futian/1980/2023; titer: 2107; serum: 15 yo female" role="graphics-symbol" aria-roledescription="point" transform="translate(754.0322580645161,71.90261043667893)" d="M5.477,0A5.477,5.477,0,1,1,-5.477,0A5.477,5.477,0,1,1,5.477,0" fill="#345995" stroke="black" stroke-width="2" opacity="0.7"/><path aria-label="virus: A/Jeju/1047/2023; titer: 8946; serum: 15 yo female" role="graphics-symbol" aria-roledescription="point" transform="translate(115.3225806451613,20.619746812833263)" d="M5.477,0A5.477,5.477,0,1,1,-5.477,0A5.477,5.477,0,1,1,5.477,0" fill="#345995" stroke="black" stroke-width="2" opacity="0.7"/><path aria-label="virus: A/KANAGAWA/AC2316/2023; titer: 2123; serum: 15 yo female" role="graphics-symbol" aria-roledescription="point" transform="translate(275,71.63430265621537)" d="M5.477,0A5.477,5.477,0,1,1,-5.477,0A5.477,5.477,0,1,1,5.477,0" fill="#345995" stroke="black" stroke-width="2" opacity="0.7"/><path aria-label="virus: A/KANAGAWA/IC2239/2023; titer: 1630; serum: 15 yo female" role="graphics-symbol" aria-roledescription="point" transform="translate(257.258064516129,81.00640141659038)" d="M5.477,0A5.477,5.477,0,1,1,-5.477,0A5.477,5.477,0,1,1,5.477,0" fill="#345995" stroke="black" stroke-width="2" opacity="0.7"/><path aria-label="virus: A/Krabi/THIS050/2023; titer: 274.7; serum: 15 yo female" role="graphics-symbol" aria-roledescription="point" transform="translate(700.8064516129033,144.16049973807955)" d="M5.477,0A5.477,5.477,0,1,1,-5.477,0A5.477,5.477,0,1,1,5.477,0" fill="#345995" stroke="black" stroke-width="2" opacity="0.7"/><path aria-label="virus: A/Luga/RII-11393S/2023; titer: 5836; serum: 15 yo female" role="graphics-symbol" aria-roledescription="point" transform="translate(204.03225806451613,35.76976140981677)" d="M5.477,0A5.477,5.477,0,1,1,-5.477,0A5.477,5.477,0,1,1,5.477,0" fill="#345995" stroke="black" stroke-width="2" opacity="0.7"/><path aria-label="virus: A/Malaysia/IMR-SARI1989/2023; titer: 1957; serum: 15 yo female" role="graphics-symbol" aria-roledescription="point" transform="translate(825,74.52191784119739)" d="M5.477,0A5.477,5.477,0,1,1,-5.477,0A5.477,5.477,0,1,1,5.477,0" fill="#345995" stroke="black" stroke-width="2" opacity="0.7"/><path aria-label="virus: A/Maldives/852/2023; titer: 1963; serum: 15 yo female" role="graphics-symbol" aria-roledescription="point" transform="translate(789.516129032258,74.4133460250331)" d="M5.477,0A5.477,5.477,0,1,1,-5.477,0A5.477,5.477,0,1,1,5.477,0" fill="#345995" stroke="black" stroke-width="2" opacity="0.7"/><path aria-label="virus: A/Massachusetts/18/2022; titer: 1975; serum: 15 yo female" role="graphics-symbol" aria-roledescription="point" transform="translate(647.5806451612904,74.19719442303594)" d="M5.477,0A5.477,5.477,0,1,1,-5.477,0A5.477,5.477,0,1,1,5.477,0" fill="#345995" stroke="black" stroke-width="2" opacity="0.7"/><path aria-label="virus: A/Netherlands/01685/2023; titer: 2068; serum: 15 yo female" role="graphics-symbol" aria-roledescription="point" transform="translate(452.4193548387097,72.5652423373957)" d="M5.477,0A5.477,5.477,0,1,1,-5.477,0A5.477,5.477,0,1,1,5.477,0" fill="#345995" stroke="black" stroke-width="2" opacity="0.7"/><path aria-label="virus: A/Netherlands/01693/2023; titer: 3103; serum: 15 yo female" role="graphics-symbol" aria-roledescription="point" transform="translate(576.6129032258065,58.173274722736664)" d="M5.477,0A5.477,5.477,0,1,1,-5.477,0A5.477,5.477,0,1,1,5.477,0" fill="#345995" stroke="black" stroke-width="2" opacity="0.7"/><path aria-label="virus: A/Netherlands/01760/2023; titer: 2720; serum: 15 yo female" role="graphics-symbol" aria-roledescription="point" transform="translate(470.16129032258067,62.84557793673173)" d="M5.477,0A5.477,5.477,0,1,1,-5.477,0A5.477,5.477,0,1,1,5.477,0" fill="#345995" stroke="black" stroke-width="2" opacity="0.7"/><path aria-label="virus: A/Oman/3011/2023; titer: 2590; serum: 15 yo female" role="graphics-symbol" aria-roledescription="point" transform="translate(931.4516129032259,64.58252747743562)" d="M5.477,0A5.477,5.477,0,1,1,-5.477,0A5.477,5.477,0,1,1,5.477,0" fill="#345995" stroke="black" stroke-width="2" opacity="0.7"/><path aria-label="virus: A/Ontario/RV00796/2023; titer: 3118; serum: 15 yo female" role="graphics-symbol" aria-roledescription="point" transform="translate(594.3548387096774,58.00224031838264)" d="M5.477,0A5.477,5.477,0,1,1,-5.477,0A5.477,5.477,0,1,1,5.477,0" fill="#345995" stroke="black" stroke-width="2" opacity="0.7"/><path aria-label="virus: A/Romania/543634/2022; titer: 9942; serum: 15 yo female" role="graphics-symbol" aria-roledescription="point" transform="translate(168.5483870967742,16.875814649939866)" d="M5.477,0A5.477,5.477,0,1,1,-5.477,0A5.477,5.477,0,1,1,5.477,0" fill="#345995" stroke="black" stroke-width="2" opacity="0.7"/><path aria-label="virus: A/SENDAI/45/2023; titer: 6533; serum: 15 yo female" role="graphics-symbol" aria-roledescription="point" transform="translate(221.7741935483871,31.768378742942012)" d="M5.477,0A5.477,5.477,0,1,1,-5.477,0A5.477,5.477,0,1,1,5.477,0" fill="#345995" stroke="black" stroke-width="2" opacity="0.7"/><path aria-label="virus: A/SOUTH_AFRICA/R07876/202023; titer: 2221; serum: 15 yo female" role="graphics-symbol" aria-roledescription="point" transform="translate(1073.3870967741937,70.0337810799831)" d="M5.477,0A5.477,5.477,0,1,1,-5.477,0A5.477,5.477,0,1,1,5.477,0" fill="#345995" stroke="black" stroke-width="2" opacity="0.7"/><path aria-label="virus: A/Saint-Petersburg/RII-MH144113/2023; titer: 1830; serum: 15 yo female" role="graphics-symbol" aria-roledescription="point" transform="translate(505.64516129032256,76.90162153620342)" d="M5.477,0A5.477,5.477,0,1,1,-5.477,0A5.477,5.477,0,1,1,5.477,0" fill="#345995" stroke="black" stroke-width="2" opacity="0.7"/><path aria-label="virus: A/Samut_Songkhram/THIS061/2023; titer: 1765; serum: 15 yo female" role="graphics-symbol" aria-roledescription="point" transform="translate(612.0967741935484,78.18428691895595)" d="M5.477,0A5.477,5.477,0,1,1,-5.477,0A5.477,5.477,0,1,1,5.477,0" fill="#345995" stroke="black" stroke-width="2" opacity="0.7"/><path aria-label="virus: A/Saskatchewan/SKFLU317847/2023; titer: 297.3; serum: 15 yo female" role="graphics-symbol" aria-roledescription="point" transform="translate(665.3225806451613,141.35642146202298)" d="M5.477,0A5.477,5.477,0,1,1,-5.477,0A5.477,5.477,0,1,1,5.477,0" fill="#345995" stroke="black" stroke-width="2" opacity="0.7"/><path aria-label="virus: A/Schleswig-Holstein/4/2023; titer: 7551; serum: 15 yo female" role="graphics-symbol" aria-roledescription="point" transform="translate(150.80645161290323,26.63230345522688)" d="M5.477,0A5.477,5.477,0,1,1,-5.477,0A5.477,5.477,0,1,1,5.477,0" fill="#345995" stroke="black" stroke-width="2" opacity="0.7"/><path aria-label="virus: A/Solwezi/13-NIC-001/2023; titer: 3261; serum: 15 yo female" role="graphics-symbol" aria-roledescription="point" transform="translate(523.3870967741935,56.411835141192576)" d="M5.477,0A5.477,5.477,0,1,1,-5.477,0A5.477,5.477,0,1,1,5.477,0" fill="#345995" stroke="black" stroke-width="2" opacity="0.7"/><path aria-label="virus: A/SouthAfrica/PET28931/2023; titer: 2189; serum: 15 yo female" role="graphics-symbol" aria-roledescription="point" transform="translate(1091.1290322580644,70.54850054417967)" d="M5.477,0A5.477,5.477,0,1,1,-5.477,0A5.477,5.477,0,1,1,5.477,0" fill="#345995" stroke="black" stroke-width="2" opacity="0.7"/><path aria-label="virus: A/SouthSudan/631/2023; titer: 10660; serum: 15 yo female" role="graphics-symbol" aria-roledescription="point" transform="translate(399.19354838709677,14.4027096000075)" d="M5.477,0A5.477,5.477,0,1,1,-5.477,0A5.477,5.477,0,1,1,5.477,0" fill="#345995" stroke="black" stroke-width="2" opacity="0.7"/><path aria-label="virus: A/SouthSudan/642/2023; titer: 11730; serum: 15 yo female" role="graphics-symbol" aria-roledescription="point" transform="translate(416.93548387096774,11.010269353861942)" d="M5.477,0A5.477,5.477,0,1,1,-5.477,0A5.477,5.477,0,1,1,5.477,0" fill="#345995" stroke="black" stroke-width="2" opacity="0.7"/><path aria-label="virus: A/South_Africa/K056872/2023; titer: 1833; serum: 15 yo female" role="graphics-symbol" aria-roledescription="point" transform="translate(984.6774193548388,76.84352690309393)" d="M5.477,0A5.477,5.477,0,1,1,-5.477,0A5.477,5.477,0,1,1,5.477,0" fill="#345995" stroke="black" stroke-width="2" opacity="0.7"/><path aria-label="virus: A/South_Africa/KO56863/2023; titer: 2130; serum: 15 yo female" role="graphics-symbol" aria-roledescription="point" transform="translate(1020.1612903225806,71.51755326366056)" d="M5.477,0A5.477,5.477,0,1,1,-5.477,0A5.477,5.477,0,1,1,5.477,0" fill="#345995" stroke="black" stroke-width="2" opacity="0.7"/><path aria-label="virus: A/South_Africa/R05384/2023; titer: 6657; serum: 15 yo female" role="graphics-symbol" aria-roledescription="point" transform="translate(62.09677419354839,31.101508613956003)" d="M5.477,0A5.477,5.477,0,1,1,-5.477,0A5.477,5.477,0,1,1,5.477,0" fill="#345995" stroke="black" stroke-width="2" opacity="0.7"/><path aria-label="virus: A/South_Africa/R05510/2023; titer: 3019; serum: 15 yo female" role="graphics-symbol" aria-roledescription="point" transform="translate(966.9354838709678,59.146615229548395)" d="M5.477,0A5.477,5.477,0,1,1,-5.477,0A5.477,5.477,0,1,1,5.477,0" fill="#345995" stroke="black" stroke-width="2" opacity="0.7"/><path aria-label="virus: A/South_Africa/R06240/2023; titer: 2182; serum: 15 yo female" role="graphics-symbol" aria-roledescription="point" transform="translate(1002.4193548387096,70.66209815174176)" d="M5.477,0A5.477,5.477,0,1,1,-5.477,0A5.477,5.477,0,1,1,5.477,0" fill="#345995" stroke="black" stroke-width="2" opacity="0.7"/><path aria-label="virus: A/South_Africa/R06359/2023; titer: 1470; serum: 15 yo female" role="graphics-symbol" aria-roledescription="point" transform="translate(328.2258064516129,84.67074301396045)" d="M5.477,0A5.477,5.477,0,1,1,-5.477,0A5.477,5.477,0,1,1,5.477,0" fill="#345995" stroke="black" stroke-width="2" opacity="0.7"/><path aria-label="virus: A/South_Africa/R06477/2023; titer: 1736; serum: 15 yo female" role="graphics-symbol" aria-roledescription="point" transform="translate(1037.9032258064517,78.77186745413432)" d="M5.477,0A5.477,5.477,0,1,1,-5.477,0A5.477,5.477,0,1,1,5.477,0" fill="#345995" stroke="black" stroke-width="2" opacity="0.7"/><path aria-label="virus: A/South_Africa/R06506/2023; titer: 5884; serum: 15 yo female" role="graphics-symbol" aria-roledescription="point" transform="translate(26.612903225806456,35.479247029849795)" d="M5.477,0A5.477,5.477,0,1,1,-5.477,0A5.477,5.477,0,1,1,5.477,0" fill="#345995" stroke="black" stroke-width="2" opacity="0.7"/><path aria-label="virus: A/South_Africa/R07073/2023; titer: 6952; serum: 15 yo female" role="graphics-symbol" aria-roledescription="point" transform="translate(44.35483870967742,29.563653508661474)" d="M5.477,0A5.477,5.477,0,1,1,-5.477,0A5.477,5.477,0,1,1,5.477,0" fill="#345995" stroke="black" stroke-width="2" opacity="0.7"/><path aria-label="virus: A/South_Africa/R07188/2023; titer: 1562; serum: 15 yo female" role="graphics-symbol" aria-roledescription="point" transform="translate(1055.6451612903224,82.51774540035468)" d="M5.477,0A5.477,5.477,0,1,1,-5.477,0A5.477,5.477,0,1,1,5.477,0" fill="#345995" stroke="black" stroke-width="2" opacity="0.7"/><path aria-label="virus: A/South_Dakota/22/2023; titer: 7390; serum: 15 yo female" role="graphics-symbol" aria-roledescription="point" transform="translate(97.58064516129033,27.396692758183796)" d="M5.477,0A5.477,5.477,0,1,1,-5.477,0A5.477,5.477,0,1,1,5.477,0" fill="#345995" stroke="black" stroke-width="2" opacity="0.7"/><path aria-label="virus: A/Surat_Thani/P152/2023; titer: 8460; serum: 15 yo female" role="graphics-symbol" aria-roledescription="point" transform="translate(79.83870967741936,22.60082569144719)" d="M5.477,0A5.477,5.477,0,1,1,-5.477,0A5.477,5.477,0,1,1,5.477,0" fill="#345995" stroke="black" stroke-width="2" opacity="0.7"/><path aria-label="virus: A/Sydney/332/2023; titer: 3092; serum: 15 yo female" role="graphics-symbol" aria-roledescription="point" transform="translate(541.1290322580645,58.2992262421651)" d="M5.477,0A5.477,5.477,0,1,1,-5.477,0A5.477,5.477,0,1,1,5.477,0" fill="#345995" stroke="black" stroke-width="2" opacity="0.7"/><path aria-label="virus: A/Sydney/710/2023; titer: 236.3; serum: 15 yo female" role="graphics-symbol" aria-roledescription="point" transform="translate(683.0645161290323,149.50099340199108)" d="M5.477,0A5.477,5.477,0,1,1,-5.477,0A5.477,5.477,0,1,1,5.477,0" fill="#345995" stroke="black" stroke-width="2" opacity="0.7"/><path aria-label="virus: A/Sydney/715/2023; titer: 2182; serum: 15 yo female" role="graphics-symbol" aria-roledescription="point" transform="translate(736.2903225806451,70.66209815174176)" d="M5.477,0A5.477,5.477,0,1,1,-5.477,0A5.477,5.477,0,1,1,5.477,0" fill="#345995" stroke="black" stroke-width="2" opacity="0.7"/><path aria-label="virus: A/Sydney/749/2023; titer: 1856; serum: 15 yo female" role="graphics-symbol" aria-roledescription="point" transform="translate(895.9677419354839,76.40126819967335)" d="M5.477,0A5.477,5.477,0,1,1,-5.477,0A5.477,5.477,0,1,1,5.477,0" fill="#345995" stroke="black" stroke-width="2" opacity="0.7"/><path aria-label="virus: A/TECPAN/017FLU/2023; titer: 6516; serum: 15 yo female" role="graphics-symbol" aria-roledescription="point" transform="translate(8.870967741935488,31.860789710223344)" d="M5.477,0A5.477,5.477,0,1,1,-5.477,0A5.477,5.477,0,1,1,5.477,0" fill="#345995" stroke="black" stroke-width="2" opacity="0.7"/><path aria-label="virus: A/Townsville/68/2023; titer: 2427; serum: 15 yo female" role="graphics-symbol" aria-roledescription="point" transform="translate(771.7741935483871,66.88793636391287)" d="M5.477,0A5.477,5.477,0,1,1,-5.477,0A5.477,5.477,0,1,1,5.477,0" fill="#345995" stroke="black" stroke-width="2" opacity="0.7"/><path aria-label="virus: A/Victoria/1033/2023; titer: 1781; serum: 15 yo female" role="graphics-symbol" aria-roledescription="point" transform="translate(913.7096774193549,77.86422369252384)" d="M5.477,0A5.477,5.477,0,1,1,-5.477,0A5.477,5.477,0,1,1,5.477,0" fill="#345995" stroke="black" stroke-width="2" opacity="0.7"/><path aria-label="virus: A/Wisconsin/27/2023; titer: 1667; serum: 15 yo female" role="graphics-symbol" aria-roledescription="point" transform="translate(807.258064516129,80.21032897491946)" d="M5.477,0A5.477,5.477,0,1,1,-5.477,0A5.477,5.477,0,1,1,5.477,0" fill="#345995" stroke="black" stroke-width="2" opacity="0.7"/><path aria-label="virus: A/YAMAGATA/98/2023; titer: 6586; serum: 15 yo female" role="graphics-symbol" aria-roledescription="point" transform="translate(186.29032258064518,31.481809827245964)" d="M5.477,0A5.477,5.477,0,1,1,-5.477,0A5.477,5.477,0,1,1,5.477,0" fill="#345995" stroke="black" stroke-width="2" opacity="0.7"/></g></g><path class="foreground" aria-hidden="true" d="" display="none"/></g></g></g></svg>