<svg xmlns="http://www.w3.org/2000/svg" xmlns:xlink="http://www.w3.org/1999/xlink" version="1.1" class="marks" width="318" height="419" viewBox="0 0 318 419"><rect width="318" height="419" fill="white"/><g fill="none" stroke-miterlimit="10" transform="translate(113,5)"><g class="mark-group role-frame root" role="graphics-object" aria-roledescription="group mark container"><g transform="translate(0,0)"><path class="background" aria-hidden="true" d="M0.5,0.5h200v220h-200Z" stroke="#ddd"/><g><g class="mark-group role-axis" role="graphics-symbol" aria-roledescription="axis" aria-label="X-axis for a discrete scale with 4 values: A/Krabi/THIS050/2023, A/Ontario/RV00796/2023, A/Bangkok/P3755/2023, A/Massachusetts/18/2022"><g transform="translate(0.5,220.5)"><path class="background" aria-hidden="true" d="M0,0h0v0h0Z" pointer-events="none"/><g><g class="mark-rule role-axis-tick" pointer-events="none"><line transform="translate(25,0)" x2="0" y2="5" stroke="#888" stroke-width="1" opacity="1"/><line transform="translate(75,0)" x2="0" y2="5" stroke="#888" stroke-width="1" opacity="1"/><line transform="translate(125,0)" x2="0" y2="5" stroke="#888" stroke-width="1" opacity="1"/><line transform="translate(175,0)" x2="0" y2="5" stroke="#888" stroke-width="1" opacity="1"/></g><g class="mark-text role-axis-label" pointer-events="none"><text text-anchor="end" transform="translate(25,7) rotate(310) translate(0,6)" font-family="sans-serif" font-size="19px" font-weight="bold" fill="#345995" opacity="1">A/Krabi/THIS050/2023</text><text text-anchor="end" transform="translate(75,7) rotate(310) translate(0,6)" font-family="sans-serif" font-size="19px" font-weight="bold" fill="#eac435" opacity="1">A/Ontario/RV00796/2023</text><text text-anchor="end" transform="translate(125,7) rotate(310) translate(0,6)" font-family="sans-serif" font-size="19px" font-weight="bold" fill="#03cea4" opacity="1">A/Bangkok/P3755/2023</text><text text-anchor="end" transform="translate(175,7) rotate(310) translate(0,6)" font-family="sans-serif" font-size="19px" font-weight="bold" fill="#ca1551" opacity="1">A/Massachusetts/18/2022</text></g><g class="mark-rule role-axis-domain" pointer-events="none"><line transform="translate(0,0)" x2="200" y2="0" stroke="#888" stroke-width="1" opacity="1"/></g></g><path class="foreground" aria-hidden="true" d="" pointer-events="none" display="none"/></g></g><g class="mark-group role-axis" role="graphics-symbol" aria-roledescription="axis" aria-label="Y-axis titled 'neutralization titer' for a log scale with values from 30 to 16,000"><g transform="translate(0.5,0.5)"><path class="background" aria-hidden="true" d="M0,0h0v0h0Z" pointer-events="none"/><g><g class="mark-rule role-axis-tick" pointer-events="none"><line transform="translate(0,220)" x2="-5" y2="0" stroke="#888" stroke-width="1" opacity="1"/><line transform="translate(0,210)" x2="-5" y2="0" stroke="#888" stroke-width="1" opacity="1"/><line transform="translate(0,202)" x2="-5" y2="0" stroke="#888" stroke-width="1" opacity="1"/><line transform="translate(0,196)" x2="-5" y2="0" stroke="#888" stroke-width="1" opacity="1"/><line transform="translate(0,190)" x2="-5" y2="0" stroke="#888" stroke-width="1" opacity="1"/><line transform="translate(0,186)" x2="-5" y2="0" stroke="#888" stroke-width="1" opacity="1"/><line transform="translate(0,182)" x2="-5" y2="0" stroke="#888" stroke-width="1" opacity="1"/><line transform="translate(0,178)" x2="-5" y2="0" stroke="#888" stroke-width="1" opacity="1"/><line transform="translate(0,154)" x2="-5" y2="0" stroke="#888" stroke-width="1" opacity="1"/><line transform="translate(0,139)" x2="-5" y2="0" stroke="#888" stroke-width="1" opacity="1"/><line transform="translate(0,129)" x2="-5" y2="0" stroke="#888" stroke-width="1" opacity="1"/><line transform="translate(0,121)" x2="-5" y2="0" stroke="#888" stroke-width="1" opacity="1"/><line transform="translate(0,115)" x2="-5" y2="0" stroke="#888" stroke-width="1" opacity="1"/><line transform="translate(0,110)" x2="-5" y2="0" stroke="#888" stroke-width="1" opacity="1"/><line transform="translate(0,105)" x2="-5" y2="0" stroke="#888" stroke-width="1" opacity="1"/><line transform="translate(0,101)" x2="-5" y2="0" stroke="#888" stroke-width="1" opacity="1"/><line transform="translate(0,97)" x2="-5" y2="0" stroke="#888" stroke-width="1" opacity="1"/><line transform="translate(0,73)" x2="-5" y2="0" stroke="#888" stroke-width="1" opacity="1"/><line transform="translate(0,59)" x2="-5" y2="0" stroke="#888" stroke-width="1" opacity="1"/><line transform="translate(0,49)" x2="-5" y2="0" stroke="#888" stroke-width="1" opacity="1"/><line transform="translate(0,41)" x2="-5" y2="0" stroke="#888" stroke-width="1" opacity="1"/><line transform="translate(0,34)" x2="-5" y2="0" stroke="#888" stroke-width="1" opacity="1"/><line transform="translate(0,29)" x2="-5" y2="0" stroke="#888" stroke-width="1" opacity="1"/><line transform="translate(0,24)" x2="-5" y2="0" stroke="#888" stroke-width="1" opacity="1"/><line transform="translate(0,20)" x2="-5" y2="0" stroke="#888" stroke-width="1" opacity="1"/><line transform="translate(0,16)" x2="-5" y2="0" stroke="#888" stroke-width="1" opacity="1"/></g><g class="mark-text role-axis-label" pointer-events="none"><text text-anchor="end" transform="translate(-7,226)" font-family="sans-serif" font-size="19px" fill="#000" opacity="1">30</text><text text-anchor="end" transform="translate(-7,215.92059593858804)" font-family="sans-serif" font-size="19px" fill="#000" opacity="1"/><text text-anchor="end" transform="translate(-7,208.10240275669864)" font-family="sans-serif" font-size="19px" fill="#000" opacity="1"/><text text-anchor="end" transform="translate(-7,201.71447380314888)" font-family="sans-serif" font-size="19px" fill="#000" opacity="1"/><text text-anchor="end" transform="translate(-7,196.31355682880138)" font-family="sans-serif" font-size="19px" fill="#000" opacity="1"/><text text-anchor="end" transform="translate(-7,191.6350697417369)" font-family="sans-serif" font-size="19px" fill="#000" opacity="1"/><text text-anchor="end" transform="translate(-7,187.50835166770963)" font-family="sans-serif" font-size="19px" fill="#000" opacity="1"/><text text-anchor="end" transform="translate(-7,183.81687655984746)" font-family="sans-serif" font-size="19px" fill="#000" opacity="1">100</text><text text-anchor="end" transform="translate(-7,159.53135036299633)" font-family="sans-serif" font-size="19px" fill="#000" opacity="1">200</text><text text-anchor="end" transform="translate(-7,145.32522822755712)" font-family="sans-serif" font-size="19px" fill="#000" opacity="0">300</text><text text-anchor="end" transform="translate(-7,135.24582416614518)" font-family="sans-serif" font-size="19px" fill="#000" opacity="1"/><text text-anchor="end" transform="translate(-7,127.42763098425577)" font-family="sans-serif" font-size="19px" fill="#000" opacity="1"/><text text-anchor="end" transform="translate(-7,121.03970203070598)" font-family="sans-serif" font-size="19px" fill="#000" opacity="1"/><text text-anchor="end" transform="translate(-7,115.63878505635851)" font-family="sans-serif" font-size="19px" fill="#000" opacity="1"/><text text-anchor="end" transform="translate(-7,110.96029796929402)" font-family="sans-serif" font-size="19px" fill="#000" opacity="1"/><text text-anchor="end" transform="translate(-7,106.83357989526678)" font-family="sans-serif" font-size="19px" fill="#000" opacity="1"/><text text-anchor="end" transform="translate(-7,103.14210478740459)" font-family="sans-serif" font-size="19px" fill="#000" opacity="1">1,000</text><text text-anchor="end" transform="translate(-7,78.85657859055347)" font-family="sans-serif" font-size="19px" fill="#000" opacity="1">2,000</text><text text-anchor="end" transform="translate(-7,64.6504564551143)" font-family="sans-serif" font-size="19px" fill="#000" opacity="0">3,000</text><text text-anchor="end" transform="translate(-7,54.57105239370231)" font-family="sans-serif" font-size="19px" fill="#000" opacity="1"/><text text-anchor="end" transform="translate(-7,46.752859211812854)" font-family="sans-serif" font-size="19px" fill="#000" opacity="1"/><text text-anchor="end" transform="translate(-7,40.364930258263136)" font-family="sans-serif" font-size="19px" fill="#000" opacity="1"/><text text-anchor="end" transform="translate(-7,34.96401328391565)" font-family="sans-serif" font-size="19px" fill="#000" opacity="1"/><text text-anchor="end" transform="translate(-7,30.285526196851155)" font-family="sans-serif" font-size="19px" fill="#000" opacity="1"/><text text-anchor="end" transform="translate(-7,26.158808122823906)" font-family="sans-serif" font-size="19px" fill="#000" opacity="1"/><text text-anchor="end" transform="translate(-7,22.467333014961703)" font-family="sans-serif" font-size="19px" fill="#000" opacity="1">10,000</text></g><g class="mark-rule role-axis-domain" pointer-events="none"><line transform="translate(0,220)" x2="0" y2="-220" stroke="#888" stroke-width="1" opacity="1"/></g><g class="mark-text role-axis-title" pointer-events="none"><text text-anchor="middle" transform="translate(-69.11328125,110) rotate(-90) translate(0,-4)" font-family="sans-serif" font-size="19px" font-weight="bold" fill="#000" opacity="1">neutralization titer</text></g></g><path class="foreground" aria-hidden="true" d="" pointer-events="none" display="none"/></g></g><g class="mark-group role-scope layer_0_pathgroup" role="graphics-object" aria-roledescription="group mark container"><g transform="translate(0,0)"><path class="background" aria-hidden="true" d="M0,0h200v220h-200Z"/><g><g class="mark-line role-mark layer_0_marks" role="graphics-object" aria-roledescription="line mark container"><path aria-label="virus: A/Krabi/THIS050/2023; titer: 274.7; serum: SCH23_y2009_s007" role="graphics-symbol" aria-roledescription="line mark" d="M25,142.412L75,57.299L125,79.703L175,73.297" stroke="rgb(136, 136, 136)" stroke-width="5"/></g></g><path class="foreground" aria-hidden="true" d="" display="none"/></g></g><g class="mark-symbol role-mark layer_1_marks" role="graphics-object" aria-roledescription="symbol mark container"><path aria-label="virus: A/Bangkok/P3755/2023; titer: 1645; serum: SCH23_y2009_s007" role="graphics-symbol" aria-roledescription="point" transform="translate(125,79.70296995549792)" d="M5.477,0A5.477,5.477,0,1,1,-5.477,0A5.477,5.477,0,1,1,5.477,0" fill="rgb(136, 136, 136)" stroke="black" stroke-width="2" opacity="0.7"/><path aria-label="virus: A/Krabi/THIS050/2023; titer: 274.7; serum: SCH23_y2009_s007" role="graphics-symbol" aria-roledescription="point" transform="translate(25,142.41205437073341)" d="M5.477,0A5.477,5.477,0,1,1,-5.477,0A5.477,5.477,0,1,1,5.477,0" fill="rgb(136, 136, 136)" stroke="black" stroke-width="2" opacity="0.7"/><path aria-label="virus: A/Massachusetts/18/2022; titer: 1975; serum: SCH23_y2009_s007" role="graphics-symbol" aria-roledescription="point" transform="translate(175,73.29729645448877)" d="M5.477,0A5.477,5.477,0,1,1,-5.477,0A5.477,5.477,0,1,1,5.477,0" fill="rgb(136, 136, 136)" stroke="black" stroke-width="2" opacity="0.7"/><path aria-label="virus: A/Ontario/RV00796/2023; titer: 3118; serum: SCH23_y2009_s007" role="graphics-symbol" aria-roledescription="point" transform="translate(75,57.29876226049142)" d="M5.477,0A5.477,5.477,0,1,1,-5.477,0A5.477,5.477,0,1,1,5.477,0" fill="rgb(136, 136, 136)" stroke="black" stroke-width="2" opacity="0.7"/></g></g><path class="foreground" aria-hidden="true" d="" display="none"/></g></g></g></svg>